G75*
G70*
%OFA0B0*%
%FSLAX24Y24*%
%IPPOS*%
%LPD*%
%AMOC8*
5,1,8,0,0,1.08239X$1,22.5*
%
%ADD10C,0.0000*%
D10*
X000411Y001660D02*
X000409Y001594D01*
X000411Y001528D01*
X000417Y001462D01*
X000426Y001396D01*
X000439Y001331D01*
X000456Y001266D01*
X000476Y001203D01*
X000500Y001141D01*
X000527Y001081D01*
X000558Y001022D01*
X000592Y000964D01*
X000629Y000909D01*
X000669Y000856D01*
X000712Y000806D01*
X000757Y000757D01*
X000806Y000712D01*
X000856Y000669D01*
X000909Y000629D01*
X000964Y000592D01*
X001022Y000558D01*
X001081Y000527D01*
X001141Y000500D01*
X001203Y000476D01*
X001266Y000456D01*
X001331Y000439D01*
X001396Y000426D01*
X001462Y000417D01*
X001528Y000411D01*
X001594Y000409D01*
X001660Y000411D01*
X001660Y000410D02*
X008410Y000410D01*
X008478Y000412D01*
X008545Y000417D01*
X008612Y000426D01*
X008679Y000439D01*
X008744Y000456D01*
X008809Y000475D01*
X008873Y000499D01*
X008935Y000526D01*
X008996Y000556D01*
X009054Y000589D01*
X009111Y000625D01*
X009166Y000665D01*
X009219Y000707D01*
X009270Y000753D01*
X009317Y000800D01*
X009363Y000851D01*
X009405Y000904D01*
X009445Y000959D01*
X009481Y001016D01*
X009514Y001074D01*
X009544Y001135D01*
X009571Y001197D01*
X009595Y001261D01*
X009614Y001326D01*
X009631Y001391D01*
X009644Y001458D01*
X009653Y001525D01*
X009658Y001592D01*
X009660Y001660D01*
X009660Y008410D01*
X009658Y008478D01*
X009653Y008545D01*
X009644Y008612D01*
X009631Y008679D01*
X009614Y008744D01*
X009595Y008809D01*
X009571Y008873D01*
X009544Y008935D01*
X009514Y008996D01*
X009481Y009054D01*
X009445Y009111D01*
X009405Y009166D01*
X009363Y009219D01*
X009317Y009270D01*
X009270Y009317D01*
X009219Y009363D01*
X009166Y009405D01*
X009111Y009445D01*
X009054Y009481D01*
X008996Y009514D01*
X008935Y009544D01*
X008873Y009571D01*
X008809Y009595D01*
X008744Y009614D01*
X008679Y009631D01*
X008612Y009644D01*
X008545Y009653D01*
X008478Y009658D01*
X008410Y009660D01*
X001660Y009660D01*
X001035Y008410D02*
X001037Y008460D01*
X001043Y008509D01*
X001053Y008558D01*
X001066Y008605D01*
X001084Y008652D01*
X001105Y008697D01*
X001129Y008740D01*
X001157Y008781D01*
X001188Y008820D01*
X001222Y008856D01*
X001259Y008890D01*
X001299Y008920D01*
X001340Y008947D01*
X001384Y008971D01*
X001429Y008991D01*
X001476Y009007D01*
X001524Y009020D01*
X001573Y009029D01*
X001623Y009034D01*
X001672Y009035D01*
X001722Y009032D01*
X001771Y009025D01*
X001820Y009014D01*
X001867Y009000D01*
X001913Y008981D01*
X001958Y008959D01*
X002001Y008934D01*
X002041Y008905D01*
X002079Y008873D01*
X002115Y008839D01*
X002148Y008801D01*
X002177Y008761D01*
X002203Y008719D01*
X002226Y008675D01*
X002245Y008629D01*
X002261Y008582D01*
X002273Y008533D01*
X002281Y008484D01*
X002285Y008435D01*
X002285Y008385D01*
X002281Y008336D01*
X002273Y008287D01*
X002261Y008238D01*
X002245Y008191D01*
X002226Y008145D01*
X002203Y008101D01*
X002177Y008059D01*
X002148Y008019D01*
X002115Y007981D01*
X002079Y007947D01*
X002041Y007915D01*
X002001Y007886D01*
X001958Y007861D01*
X001913Y007839D01*
X001867Y007820D01*
X001820Y007806D01*
X001771Y007795D01*
X001722Y007788D01*
X001672Y007785D01*
X001623Y007786D01*
X001573Y007791D01*
X001524Y007800D01*
X001476Y007813D01*
X001429Y007829D01*
X001384Y007849D01*
X001340Y007873D01*
X001299Y007900D01*
X001259Y007930D01*
X001222Y007964D01*
X001188Y008000D01*
X001157Y008039D01*
X001129Y008080D01*
X001105Y008123D01*
X001084Y008168D01*
X001066Y008215D01*
X001053Y008262D01*
X001043Y008311D01*
X001037Y008360D01*
X001035Y008410D01*
X000410Y008410D02*
X000410Y001660D01*
X001035Y001660D02*
X001037Y001710D01*
X001043Y001759D01*
X001053Y001808D01*
X001066Y001855D01*
X001084Y001902D01*
X001105Y001947D01*
X001129Y001990D01*
X001157Y002031D01*
X001188Y002070D01*
X001222Y002106D01*
X001259Y002140D01*
X001299Y002170D01*
X001340Y002197D01*
X001384Y002221D01*
X001429Y002241D01*
X001476Y002257D01*
X001524Y002270D01*
X001573Y002279D01*
X001623Y002284D01*
X001672Y002285D01*
X001722Y002282D01*
X001771Y002275D01*
X001820Y002264D01*
X001867Y002250D01*
X001913Y002231D01*
X001958Y002209D01*
X002001Y002184D01*
X002041Y002155D01*
X002079Y002123D01*
X002115Y002089D01*
X002148Y002051D01*
X002177Y002011D01*
X002203Y001969D01*
X002226Y001925D01*
X002245Y001879D01*
X002261Y001832D01*
X002273Y001783D01*
X002281Y001734D01*
X002285Y001685D01*
X002285Y001635D01*
X002281Y001586D01*
X002273Y001537D01*
X002261Y001488D01*
X002245Y001441D01*
X002226Y001395D01*
X002203Y001351D01*
X002177Y001309D01*
X002148Y001269D01*
X002115Y001231D01*
X002079Y001197D01*
X002041Y001165D01*
X002001Y001136D01*
X001958Y001111D01*
X001913Y001089D01*
X001867Y001070D01*
X001820Y001056D01*
X001771Y001045D01*
X001722Y001038D01*
X001672Y001035D01*
X001623Y001036D01*
X001573Y001041D01*
X001524Y001050D01*
X001476Y001063D01*
X001429Y001079D01*
X001384Y001099D01*
X001340Y001123D01*
X001299Y001150D01*
X001259Y001180D01*
X001222Y001214D01*
X001188Y001250D01*
X001157Y001289D01*
X001129Y001330D01*
X001105Y001373D01*
X001084Y001418D01*
X001066Y001465D01*
X001053Y001512D01*
X001043Y001561D01*
X001037Y001610D01*
X001035Y001660D01*
X000410Y008410D02*
X000412Y008478D01*
X000417Y008545D01*
X000426Y008612D01*
X000439Y008679D01*
X000456Y008744D01*
X000475Y008809D01*
X000499Y008873D01*
X000526Y008935D01*
X000556Y008996D01*
X000589Y009054D01*
X000625Y009111D01*
X000665Y009166D01*
X000707Y009219D01*
X000753Y009270D01*
X000800Y009317D01*
X000851Y009363D01*
X000904Y009405D01*
X000959Y009445D01*
X001016Y009481D01*
X001074Y009514D01*
X001135Y009544D01*
X001197Y009571D01*
X001261Y009595D01*
X001326Y009614D01*
X001391Y009631D01*
X001458Y009644D01*
X001525Y009653D01*
X001592Y009658D01*
X001660Y009660D01*
X007785Y008410D02*
X007787Y008460D01*
X007793Y008509D01*
X007803Y008558D01*
X007816Y008605D01*
X007834Y008652D01*
X007855Y008697D01*
X007879Y008740D01*
X007907Y008781D01*
X007938Y008820D01*
X007972Y008856D01*
X008009Y008890D01*
X008049Y008920D01*
X008090Y008947D01*
X008134Y008971D01*
X008179Y008991D01*
X008226Y009007D01*
X008274Y009020D01*
X008323Y009029D01*
X008373Y009034D01*
X008422Y009035D01*
X008472Y009032D01*
X008521Y009025D01*
X008570Y009014D01*
X008617Y009000D01*
X008663Y008981D01*
X008708Y008959D01*
X008751Y008934D01*
X008791Y008905D01*
X008829Y008873D01*
X008865Y008839D01*
X008898Y008801D01*
X008927Y008761D01*
X008953Y008719D01*
X008976Y008675D01*
X008995Y008629D01*
X009011Y008582D01*
X009023Y008533D01*
X009031Y008484D01*
X009035Y008435D01*
X009035Y008385D01*
X009031Y008336D01*
X009023Y008287D01*
X009011Y008238D01*
X008995Y008191D01*
X008976Y008145D01*
X008953Y008101D01*
X008927Y008059D01*
X008898Y008019D01*
X008865Y007981D01*
X008829Y007947D01*
X008791Y007915D01*
X008751Y007886D01*
X008708Y007861D01*
X008663Y007839D01*
X008617Y007820D01*
X008570Y007806D01*
X008521Y007795D01*
X008472Y007788D01*
X008422Y007785D01*
X008373Y007786D01*
X008323Y007791D01*
X008274Y007800D01*
X008226Y007813D01*
X008179Y007829D01*
X008134Y007849D01*
X008090Y007873D01*
X008049Y007900D01*
X008009Y007930D01*
X007972Y007964D01*
X007938Y008000D01*
X007907Y008039D01*
X007879Y008080D01*
X007855Y008123D01*
X007834Y008168D01*
X007816Y008215D01*
X007803Y008262D01*
X007793Y008311D01*
X007787Y008360D01*
X007785Y008410D01*
X007785Y001660D02*
X007787Y001710D01*
X007793Y001759D01*
X007803Y001808D01*
X007816Y001855D01*
X007834Y001902D01*
X007855Y001947D01*
X007879Y001990D01*
X007907Y002031D01*
X007938Y002070D01*
X007972Y002106D01*
X008009Y002140D01*
X008049Y002170D01*
X008090Y002197D01*
X008134Y002221D01*
X008179Y002241D01*
X008226Y002257D01*
X008274Y002270D01*
X008323Y002279D01*
X008373Y002284D01*
X008422Y002285D01*
X008472Y002282D01*
X008521Y002275D01*
X008570Y002264D01*
X008617Y002250D01*
X008663Y002231D01*
X008708Y002209D01*
X008751Y002184D01*
X008791Y002155D01*
X008829Y002123D01*
X008865Y002089D01*
X008898Y002051D01*
X008927Y002011D01*
X008953Y001969D01*
X008976Y001925D01*
X008995Y001879D01*
X009011Y001832D01*
X009023Y001783D01*
X009031Y001734D01*
X009035Y001685D01*
X009035Y001635D01*
X009031Y001586D01*
X009023Y001537D01*
X009011Y001488D01*
X008995Y001441D01*
X008976Y001395D01*
X008953Y001351D01*
X008927Y001309D01*
X008898Y001269D01*
X008865Y001231D01*
X008829Y001197D01*
X008791Y001165D01*
X008751Y001136D01*
X008708Y001111D01*
X008663Y001089D01*
X008617Y001070D01*
X008570Y001056D01*
X008521Y001045D01*
X008472Y001038D01*
X008422Y001035D01*
X008373Y001036D01*
X008323Y001041D01*
X008274Y001050D01*
X008226Y001063D01*
X008179Y001079D01*
X008134Y001099D01*
X008090Y001123D01*
X008049Y001150D01*
X008009Y001180D01*
X007972Y001214D01*
X007938Y001250D01*
X007907Y001289D01*
X007879Y001330D01*
X007855Y001373D01*
X007834Y001418D01*
X007816Y001465D01*
X007803Y001512D01*
X007793Y001561D01*
X007787Y001610D01*
X007785Y001660D01*
M02*
