G75*
G70*
%OFA0B0*%
%FSLAX24Y24*%
%IPPOS*%
%LPD*%
%AMOC8*
5,1,8,0,0,1.08239X$1,22.5*
%
%ADD10C,0.0000*%
%ADD11C,0.0060*%
%ADD12R,0.0110X0.0005*%
%ADD13R,0.0210X0.0005*%
%ADD14R,0.0280X0.0005*%
%ADD15R,0.0325X0.0005*%
%ADD16R,0.0365X0.0005*%
%ADD17R,0.0410X0.0005*%
%ADD18R,0.0440X0.0005*%
%ADD19R,0.0470X0.0005*%
%ADD20R,0.0505X0.0005*%
%ADD21R,0.0530X0.0005*%
%ADD22R,0.0555X0.0005*%
%ADD23R,0.0580X0.0005*%
%ADD24R,0.0600X0.0005*%
%ADD25R,0.0625X0.0005*%
%ADD26R,0.0645X0.0005*%
%ADD27R,0.0665X0.0005*%
%ADD28R,0.0685X0.0005*%
%ADD29R,0.0705X0.0005*%
%ADD30R,0.0715X0.0005*%
%ADD31R,0.0735X0.0005*%
%ADD32R,0.0755X0.0005*%
%ADD33R,0.0090X0.0005*%
%ADD34R,0.0770X0.0005*%
%ADD35R,0.0190X0.0005*%
%ADD36R,0.0355X0.0005*%
%ADD37R,0.0360X0.0005*%
%ADD38R,0.0260X0.0005*%
%ADD39R,0.0315X0.0005*%
%ADD40R,0.0320X0.0005*%
%ADD41R,0.0295X0.0005*%
%ADD42R,0.0275X0.0005*%
%ADD43R,0.0400X0.0005*%
%ADD44R,0.0265X0.0005*%
%ADD45R,0.0435X0.0005*%
%ADD46R,0.0255X0.0005*%
%ADD47R,0.0465X0.0005*%
%ADD48R,0.0245X0.0005*%
%ADD49R,0.0495X0.0005*%
%ADD50R,0.0235X0.0005*%
%ADD51R,0.0525X0.0005*%
%ADD52R,0.0230X0.0005*%
%ADD53R,0.0240X0.0005*%
%ADD54R,0.0545X0.0005*%
%ADD55R,0.0820X0.0005*%
%ADD56R,0.0220X0.0005*%
%ADD57R,0.0025X0.0005*%
%ADD58R,0.0795X0.0005*%
%ADD59R,0.0215X0.0005*%
%ADD60R,0.0035X0.0005*%
%ADD61R,0.0040X0.0005*%
%ADD62R,0.0800X0.0005*%
%ADD63R,0.0205X0.0005*%
%ADD64R,0.0050X0.0005*%
%ADD65R,0.0805X0.0005*%
%ADD66R,0.0165X0.0005*%
%ADD67R,0.0055X0.0005*%
%ADD68R,0.0200X0.0005*%
%ADD69R,0.0060X0.0005*%
%ADD70R,0.0300X0.0005*%
%ADD71R,0.0195X0.0005*%
%ADD72R,0.0065X0.0005*%
%ADD73R,0.0345X0.0005*%
%ADD74R,0.0070X0.0005*%
%ADD75R,0.0385X0.0005*%
%ADD76R,0.0080X0.0005*%
%ADD77R,0.0425X0.0005*%
%ADD78R,0.0185X0.0005*%
%ADD79R,0.0085X0.0005*%
%ADD80R,0.0635X0.0005*%
%ADD81R,0.0810X0.0005*%
%ADD82R,0.0095X0.0005*%
%ADD83R,0.0335X0.0005*%
%ADD84R,0.0655X0.0005*%
%ADD85R,0.0105X0.0005*%
%ADD86R,0.0290X0.0005*%
%ADD87R,0.0660X0.0005*%
%ADD88R,0.0115X0.0005*%
%ADD89R,0.0285X0.0005*%
%ADD90R,0.0120X0.0005*%
%ADD91R,0.0270X0.0005*%
%ADD92R,0.0675X0.0005*%
%ADD93R,0.0130X0.0005*%
%ADD94R,0.0680X0.0005*%
%ADD95R,0.0135X0.0005*%
%ADD96R,0.0250X0.0005*%
%ADD97R,0.0140X0.0005*%
%ADD98R,0.0180X0.0005*%
%ADD99R,0.0695X0.0005*%
%ADD100R,0.0150X0.0005*%
%ADD101R,0.0160X0.0005*%
%ADD102R,0.0155X0.0005*%
%ADD103R,0.0145X0.0005*%
%ADD104R,0.0700X0.0005*%
%ADD105R,0.0225X0.0005*%
%ADD106R,0.0170X0.0005*%
%ADD107R,0.0100X0.0005*%
%ADD108R,0.0075X0.0005*%
%ADD109R,0.0720X0.0005*%
%ADD110R,0.0725X0.0005*%
%ADD111R,0.0340X0.0005*%
%ADD112R,0.0305X0.0005*%
%ADD113R,0.0175X0.0005*%
%ADD114R,0.0005X0.0005*%
%ADD115R,0.0010X0.0005*%
%ADD116R,0.0015X0.0005*%
%ADD117R,0.0020X0.0005*%
%ADD118R,0.0030X0.0005*%
%ADD119R,0.0125X0.0005*%
%ADD120R,0.0045X0.0005*%
%ADD121R,0.0370X0.0005*%
%ADD122R,0.0375X0.0005*%
%ADD123R,0.0350X0.0005*%
%ADD124R,0.0330X0.0005*%
%ADD125R,0.0485X0.0005*%
%ADD126R,0.0480X0.0005*%
%ADD127R,0.0460X0.0005*%
%ADD128R,0.0445X0.0005*%
%ADD129R,0.0310X0.0005*%
%ADD130R,0.0380X0.0005*%
%ADD131R,0.0415X0.0005*%
%ADD132R,0.0450X0.0005*%
%ADD133R,0.0490X0.0005*%
%ADD134R,0.0965X0.0005*%
%ADD135R,0.0975X0.0005*%
%ADD136R,0.0980X0.0005*%
%ADD137R,0.0990X0.0005*%
%ADD138R,0.1005X0.0005*%
%ADD139R,0.0615X0.0005*%
%ADD140R,0.0640X0.0005*%
%ADD141R,0.0605X0.0005*%
%ADD142R,0.0620X0.0005*%
%ADD143R,0.0590X0.0005*%
%ADD144R,0.0570X0.0005*%
%ADD145R,0.0540X0.0005*%
%ADD146R,0.0515X0.0005*%
%ADD147R,0.0565X0.0005*%
%ADD148R,0.0535X0.0005*%
%ADD149R,0.0395X0.0005*%
%ADD150R,0.0520X0.0005*%
%ADD151R,0.0500X0.0005*%
%ADD152R,0.0430X0.0005*%
%ADD153C,0.0100*%
%ADD154C,0.0080*%
%ADD155C,0.0059*%
%ADD156C,0.0050*%
D10*
X000411Y001660D02*
X000409Y001594D01*
X000411Y001528D01*
X000417Y001462D01*
X000426Y001396D01*
X000439Y001331D01*
X000456Y001266D01*
X000476Y001203D01*
X000500Y001141D01*
X000527Y001081D01*
X000558Y001022D01*
X000592Y000964D01*
X000629Y000909D01*
X000669Y000856D01*
X000712Y000806D01*
X000757Y000757D01*
X000806Y000712D01*
X000856Y000669D01*
X000909Y000629D01*
X000964Y000592D01*
X001022Y000558D01*
X001081Y000527D01*
X001141Y000500D01*
X001203Y000476D01*
X001266Y000456D01*
X001331Y000439D01*
X001396Y000426D01*
X001462Y000417D01*
X001528Y000411D01*
X001594Y000409D01*
X001660Y000411D01*
X001660Y000410D02*
X008410Y000410D01*
X008478Y000412D01*
X008545Y000417D01*
X008612Y000426D01*
X008679Y000439D01*
X008744Y000456D01*
X008809Y000475D01*
X008873Y000499D01*
X008935Y000526D01*
X008996Y000556D01*
X009054Y000589D01*
X009111Y000625D01*
X009166Y000665D01*
X009219Y000707D01*
X009270Y000753D01*
X009317Y000800D01*
X009363Y000851D01*
X009405Y000904D01*
X009445Y000959D01*
X009481Y001016D01*
X009514Y001074D01*
X009544Y001135D01*
X009571Y001197D01*
X009595Y001261D01*
X009614Y001326D01*
X009631Y001391D01*
X009644Y001458D01*
X009653Y001525D01*
X009658Y001592D01*
X009660Y001660D01*
X009660Y008410D01*
X009658Y008478D01*
X009653Y008545D01*
X009644Y008612D01*
X009631Y008679D01*
X009614Y008744D01*
X009595Y008809D01*
X009571Y008873D01*
X009544Y008935D01*
X009514Y008996D01*
X009481Y009054D01*
X009445Y009111D01*
X009405Y009166D01*
X009363Y009219D01*
X009317Y009270D01*
X009270Y009317D01*
X009219Y009363D01*
X009166Y009405D01*
X009111Y009445D01*
X009054Y009481D01*
X008996Y009514D01*
X008935Y009544D01*
X008873Y009571D01*
X008809Y009595D01*
X008744Y009614D01*
X008679Y009631D01*
X008612Y009644D01*
X008545Y009653D01*
X008478Y009658D01*
X008410Y009660D01*
X001660Y009660D01*
X001035Y008410D02*
X001037Y008460D01*
X001043Y008509D01*
X001053Y008558D01*
X001066Y008605D01*
X001084Y008652D01*
X001105Y008697D01*
X001129Y008740D01*
X001157Y008781D01*
X001188Y008820D01*
X001222Y008856D01*
X001259Y008890D01*
X001299Y008920D01*
X001340Y008947D01*
X001384Y008971D01*
X001429Y008991D01*
X001476Y009007D01*
X001524Y009020D01*
X001573Y009029D01*
X001623Y009034D01*
X001672Y009035D01*
X001722Y009032D01*
X001771Y009025D01*
X001820Y009014D01*
X001867Y009000D01*
X001913Y008981D01*
X001958Y008959D01*
X002001Y008934D01*
X002041Y008905D01*
X002079Y008873D01*
X002115Y008839D01*
X002148Y008801D01*
X002177Y008761D01*
X002203Y008719D01*
X002226Y008675D01*
X002245Y008629D01*
X002261Y008582D01*
X002273Y008533D01*
X002281Y008484D01*
X002285Y008435D01*
X002285Y008385D01*
X002281Y008336D01*
X002273Y008287D01*
X002261Y008238D01*
X002245Y008191D01*
X002226Y008145D01*
X002203Y008101D01*
X002177Y008059D01*
X002148Y008019D01*
X002115Y007981D01*
X002079Y007947D01*
X002041Y007915D01*
X002001Y007886D01*
X001958Y007861D01*
X001913Y007839D01*
X001867Y007820D01*
X001820Y007806D01*
X001771Y007795D01*
X001722Y007788D01*
X001672Y007785D01*
X001623Y007786D01*
X001573Y007791D01*
X001524Y007800D01*
X001476Y007813D01*
X001429Y007829D01*
X001384Y007849D01*
X001340Y007873D01*
X001299Y007900D01*
X001259Y007930D01*
X001222Y007964D01*
X001188Y008000D01*
X001157Y008039D01*
X001129Y008080D01*
X001105Y008123D01*
X001084Y008168D01*
X001066Y008215D01*
X001053Y008262D01*
X001043Y008311D01*
X001037Y008360D01*
X001035Y008410D01*
X000410Y008410D02*
X000410Y001660D01*
X001035Y001660D02*
X001037Y001710D01*
X001043Y001759D01*
X001053Y001808D01*
X001066Y001855D01*
X001084Y001902D01*
X001105Y001947D01*
X001129Y001990D01*
X001157Y002031D01*
X001188Y002070D01*
X001222Y002106D01*
X001259Y002140D01*
X001299Y002170D01*
X001340Y002197D01*
X001384Y002221D01*
X001429Y002241D01*
X001476Y002257D01*
X001524Y002270D01*
X001573Y002279D01*
X001623Y002284D01*
X001672Y002285D01*
X001722Y002282D01*
X001771Y002275D01*
X001820Y002264D01*
X001867Y002250D01*
X001913Y002231D01*
X001958Y002209D01*
X002001Y002184D01*
X002041Y002155D01*
X002079Y002123D01*
X002115Y002089D01*
X002148Y002051D01*
X002177Y002011D01*
X002203Y001969D01*
X002226Y001925D01*
X002245Y001879D01*
X002261Y001832D01*
X002273Y001783D01*
X002281Y001734D01*
X002285Y001685D01*
X002285Y001635D01*
X002281Y001586D01*
X002273Y001537D01*
X002261Y001488D01*
X002245Y001441D01*
X002226Y001395D01*
X002203Y001351D01*
X002177Y001309D01*
X002148Y001269D01*
X002115Y001231D01*
X002079Y001197D01*
X002041Y001165D01*
X002001Y001136D01*
X001958Y001111D01*
X001913Y001089D01*
X001867Y001070D01*
X001820Y001056D01*
X001771Y001045D01*
X001722Y001038D01*
X001672Y001035D01*
X001623Y001036D01*
X001573Y001041D01*
X001524Y001050D01*
X001476Y001063D01*
X001429Y001079D01*
X001384Y001099D01*
X001340Y001123D01*
X001299Y001150D01*
X001259Y001180D01*
X001222Y001214D01*
X001188Y001250D01*
X001157Y001289D01*
X001129Y001330D01*
X001105Y001373D01*
X001084Y001418D01*
X001066Y001465D01*
X001053Y001512D01*
X001043Y001561D01*
X001037Y001610D01*
X001035Y001660D01*
X000410Y008410D02*
X000412Y008478D01*
X000417Y008545D01*
X000426Y008612D01*
X000439Y008679D01*
X000456Y008744D01*
X000475Y008809D01*
X000499Y008873D01*
X000526Y008935D01*
X000556Y008996D01*
X000589Y009054D01*
X000625Y009111D01*
X000665Y009166D01*
X000707Y009219D01*
X000753Y009270D01*
X000800Y009317D01*
X000851Y009363D01*
X000904Y009405D01*
X000959Y009445D01*
X001016Y009481D01*
X001074Y009514D01*
X001135Y009544D01*
X001197Y009571D01*
X001261Y009595D01*
X001326Y009614D01*
X001391Y009631D01*
X001458Y009644D01*
X001525Y009653D01*
X001592Y009658D01*
X001660Y009660D01*
X007785Y008410D02*
X007787Y008460D01*
X007793Y008509D01*
X007803Y008558D01*
X007816Y008605D01*
X007834Y008652D01*
X007855Y008697D01*
X007879Y008740D01*
X007907Y008781D01*
X007938Y008820D01*
X007972Y008856D01*
X008009Y008890D01*
X008049Y008920D01*
X008090Y008947D01*
X008134Y008971D01*
X008179Y008991D01*
X008226Y009007D01*
X008274Y009020D01*
X008323Y009029D01*
X008373Y009034D01*
X008422Y009035D01*
X008472Y009032D01*
X008521Y009025D01*
X008570Y009014D01*
X008617Y009000D01*
X008663Y008981D01*
X008708Y008959D01*
X008751Y008934D01*
X008791Y008905D01*
X008829Y008873D01*
X008865Y008839D01*
X008898Y008801D01*
X008927Y008761D01*
X008953Y008719D01*
X008976Y008675D01*
X008995Y008629D01*
X009011Y008582D01*
X009023Y008533D01*
X009031Y008484D01*
X009035Y008435D01*
X009035Y008385D01*
X009031Y008336D01*
X009023Y008287D01*
X009011Y008238D01*
X008995Y008191D01*
X008976Y008145D01*
X008953Y008101D01*
X008927Y008059D01*
X008898Y008019D01*
X008865Y007981D01*
X008829Y007947D01*
X008791Y007915D01*
X008751Y007886D01*
X008708Y007861D01*
X008663Y007839D01*
X008617Y007820D01*
X008570Y007806D01*
X008521Y007795D01*
X008472Y007788D01*
X008422Y007785D01*
X008373Y007786D01*
X008323Y007791D01*
X008274Y007800D01*
X008226Y007813D01*
X008179Y007829D01*
X008134Y007849D01*
X008090Y007873D01*
X008049Y007900D01*
X008009Y007930D01*
X007972Y007964D01*
X007938Y008000D01*
X007907Y008039D01*
X007879Y008080D01*
X007855Y008123D01*
X007834Y008168D01*
X007816Y008215D01*
X007803Y008262D01*
X007793Y008311D01*
X007787Y008360D01*
X007785Y008410D01*
X007785Y001660D02*
X007787Y001710D01*
X007793Y001759D01*
X007803Y001808D01*
X007816Y001855D01*
X007834Y001902D01*
X007855Y001947D01*
X007879Y001990D01*
X007907Y002031D01*
X007938Y002070D01*
X007972Y002106D01*
X008009Y002140D01*
X008049Y002170D01*
X008090Y002197D01*
X008134Y002221D01*
X008179Y002241D01*
X008226Y002257D01*
X008274Y002270D01*
X008323Y002279D01*
X008373Y002284D01*
X008422Y002285D01*
X008472Y002282D01*
X008521Y002275D01*
X008570Y002264D01*
X008617Y002250D01*
X008663Y002231D01*
X008708Y002209D01*
X008751Y002184D01*
X008791Y002155D01*
X008829Y002123D01*
X008865Y002089D01*
X008898Y002051D01*
X008927Y002011D01*
X008953Y001969D01*
X008976Y001925D01*
X008995Y001879D01*
X009011Y001832D01*
X009023Y001783D01*
X009031Y001734D01*
X009035Y001685D01*
X009035Y001635D01*
X009031Y001586D01*
X009023Y001537D01*
X009011Y001488D01*
X008995Y001441D01*
X008976Y001395D01*
X008953Y001351D01*
X008927Y001309D01*
X008898Y001269D01*
X008865Y001231D01*
X008829Y001197D01*
X008791Y001165D01*
X008751Y001136D01*
X008708Y001111D01*
X008663Y001089D01*
X008617Y001070D01*
X008570Y001056D01*
X008521Y001045D01*
X008472Y001038D01*
X008422Y001035D01*
X008373Y001036D01*
X008323Y001041D01*
X008274Y001050D01*
X008226Y001063D01*
X008179Y001079D01*
X008134Y001099D01*
X008090Y001123D01*
X008049Y001150D01*
X008009Y001180D01*
X007972Y001214D01*
X007938Y001250D01*
X007907Y001289D01*
X007879Y001330D01*
X007855Y001373D01*
X007834Y001418D01*
X007816Y001465D01*
X007803Y001512D01*
X007793Y001561D01*
X007787Y001610D01*
X007785Y001660D01*
D11*
X006095Y002975D02*
X005775Y002975D01*
X005775Y003195D01*
X005775Y003875D02*
X005775Y004095D01*
X006095Y004095D01*
X006792Y003724D02*
X006792Y003497D01*
X006848Y003440D01*
X007018Y003440D01*
X007018Y003780D01*
X006848Y003780D01*
X006792Y003724D01*
X007160Y003780D02*
X007160Y003440D01*
X007387Y003780D01*
X007387Y003440D01*
X007528Y003497D02*
X007528Y003610D01*
X007642Y003610D01*
X007755Y003497D02*
X007698Y003440D01*
X007585Y003440D01*
X007528Y003497D01*
X007528Y003724D02*
X007585Y003780D01*
X007698Y003780D01*
X007755Y003724D01*
X007755Y003497D01*
X007642Y004440D02*
X007528Y004553D01*
X007528Y004780D01*
X007387Y004724D02*
X007387Y004497D01*
X007330Y004440D01*
X007217Y004440D01*
X007160Y004497D01*
X007018Y004497D02*
X007018Y004724D01*
X006962Y004780D01*
X006848Y004780D01*
X006792Y004724D01*
X006792Y004497D02*
X006848Y004440D01*
X006962Y004440D01*
X007018Y004497D01*
X007160Y004724D02*
X007217Y004780D01*
X007330Y004780D01*
X007387Y004724D01*
X007642Y004440D02*
X007755Y004553D01*
X007755Y004780D01*
X007698Y005440D02*
X007585Y005440D01*
X007528Y005497D01*
X007528Y005553D01*
X007585Y005610D01*
X007698Y005610D01*
X007755Y005667D01*
X007755Y005724D01*
X007698Y005780D01*
X007585Y005780D01*
X007528Y005724D01*
X007387Y005724D02*
X007387Y005497D01*
X007330Y005440D01*
X007217Y005440D01*
X007160Y005497D01*
X007018Y005440D02*
X006792Y005440D01*
X007018Y005440D02*
X007018Y005780D01*
X007160Y005724D02*
X007217Y005780D01*
X007330Y005780D01*
X007387Y005724D01*
X007698Y005440D02*
X007755Y005497D01*
X007698Y006440D02*
X007585Y006440D01*
X007528Y006497D01*
X007528Y006553D01*
X007585Y006610D01*
X007698Y006610D01*
X007755Y006667D01*
X007755Y006724D01*
X007698Y006780D01*
X007585Y006780D01*
X007528Y006724D01*
X007387Y006780D02*
X007217Y006780D01*
X007160Y006724D01*
X007160Y006497D01*
X007217Y006440D01*
X007387Y006440D01*
X007387Y006780D01*
X007018Y006667D02*
X007018Y006440D01*
X007018Y006610D02*
X006792Y006610D01*
X006792Y006667D02*
X006792Y006440D01*
X006792Y006667D02*
X006905Y006780D01*
X007018Y006667D01*
X006505Y006562D02*
X006505Y006335D01*
X006449Y006194D02*
X006392Y006194D01*
X006335Y006137D01*
X006335Y005967D01*
X006335Y006137D02*
X006278Y006194D01*
X006222Y006194D01*
X006165Y006137D01*
X006165Y005967D01*
X006505Y005967D01*
X006505Y006137D01*
X006449Y006194D01*
X006222Y006335D02*
X006165Y006335D01*
X006222Y006335D02*
X006449Y006562D01*
X006505Y006562D01*
X006392Y006703D02*
X006505Y006817D01*
X006165Y006817D01*
X006165Y006930D02*
X006165Y006703D01*
X006222Y007072D02*
X006165Y007128D01*
X006165Y007242D01*
X006222Y007299D01*
X006335Y007299D01*
X006392Y007242D01*
X006392Y007185D01*
X006335Y007072D01*
X006505Y007072D01*
X006505Y007299D01*
X006420Y007975D02*
X006100Y007975D01*
X006420Y007975D02*
X006420Y008195D01*
X006420Y008875D02*
X006420Y009095D01*
X006100Y009095D01*
X004170Y009095D02*
X004170Y008875D01*
X004170Y009095D02*
X003850Y009095D01*
X004170Y008195D02*
X004170Y007975D01*
X003850Y007975D01*
X002505Y007117D02*
X002505Y007003D01*
X002449Y006947D01*
X002222Y006947D01*
X002449Y007174D01*
X002222Y007174D01*
X002165Y007117D01*
X002165Y007003D01*
X002222Y006947D01*
X002222Y006819D02*
X002165Y006819D01*
X002165Y006763D01*
X002222Y006763D01*
X002222Y006819D01*
X002222Y006621D02*
X002165Y006564D01*
X002165Y006451D01*
X002222Y006394D01*
X002335Y006508D02*
X002335Y006564D01*
X002278Y006621D01*
X002222Y006621D01*
X002335Y006564D02*
X002392Y006621D01*
X002449Y006621D01*
X002505Y006564D01*
X002505Y006451D01*
X002449Y006394D01*
X002392Y005884D02*
X002165Y005884D01*
X002335Y005884D02*
X002335Y005658D01*
X002392Y005658D02*
X002505Y005771D01*
X002392Y005884D01*
X002392Y005658D02*
X002165Y005658D01*
X002222Y005516D02*
X002165Y005459D01*
X002165Y005346D01*
X002222Y005289D01*
X002335Y005346D02*
X002335Y005459D01*
X002278Y005516D01*
X002222Y005516D01*
X002335Y005346D02*
X002392Y005289D01*
X002449Y005289D01*
X002505Y005346D01*
X002505Y005459D01*
X002449Y005516D01*
X002335Y005148D02*
X002335Y004921D01*
X002449Y004779D02*
X002505Y004779D01*
X002449Y004779D02*
X002335Y004666D01*
X002165Y004666D01*
X002335Y004666D02*
X002449Y004553D01*
X002505Y004553D01*
X002449Y004411D02*
X002392Y004411D01*
X002335Y004354D01*
X002335Y004184D01*
X002165Y004184D02*
X002505Y004184D01*
X002505Y004354D01*
X002449Y004411D01*
X002335Y004354D02*
X002278Y004411D01*
X002222Y004411D01*
X002165Y004354D01*
X002165Y004184D01*
X002222Y003675D02*
X002165Y003618D01*
X002165Y003504D01*
X002222Y003448D01*
X002449Y003448D01*
X002505Y003504D01*
X002505Y003618D01*
X002449Y003675D01*
X002449Y003306D02*
X002505Y003250D01*
X002505Y003136D01*
X002449Y003079D01*
X002222Y003079D01*
X002165Y003136D01*
X002165Y003250D01*
X002222Y003306D01*
X003650Y003195D02*
X003650Y002975D01*
X003970Y002975D01*
X003650Y003875D02*
X003650Y004095D01*
X003970Y004095D01*
X003910Y005785D02*
X003940Y005787D01*
X003970Y005792D01*
X003999Y005801D01*
X004026Y005814D01*
X004052Y005829D01*
X004076Y005848D01*
X004097Y005869D01*
X004116Y005893D01*
X004131Y005919D01*
X004144Y005946D01*
X004153Y005975D01*
X004158Y006005D01*
X004160Y006035D01*
X004158Y006065D01*
X004153Y006095D01*
X004144Y006124D01*
X004131Y006151D01*
X004116Y006177D01*
X004097Y006201D01*
X004076Y006222D01*
X004052Y006241D01*
X004026Y006256D01*
X003999Y006269D01*
X003970Y006278D01*
X003940Y006283D01*
X003910Y006285D01*
X002505Y007117D02*
X002449Y007174D01*
X006165Y005825D02*
X006165Y005598D01*
X006392Y005825D01*
X006449Y005825D01*
X006505Y005769D01*
X006505Y005655D01*
X006449Y005598D01*
X006449Y005457D02*
X006392Y005457D01*
X006335Y005400D01*
X006335Y005287D01*
X006392Y005230D01*
X006449Y005230D01*
X006505Y005287D01*
X006505Y005400D01*
X006449Y005457D01*
X006335Y005400D02*
X006278Y005457D01*
X006222Y005457D01*
X006165Y005400D01*
X006165Y005287D01*
X006222Y005230D01*
X006278Y005230D01*
X006335Y005287D01*
X006335Y005089D02*
X006278Y005032D01*
X006278Y004862D01*
X006165Y004862D02*
X006505Y004862D01*
X006505Y005032D01*
X006449Y005089D01*
X006335Y005089D01*
X007698Y006440D02*
X007755Y006497D01*
D12*
X005096Y002256D03*
X005096Y002251D03*
X005411Y001716D03*
X005411Y001711D03*
X005251Y001691D03*
X005251Y001686D03*
X005471Y001241D03*
X005441Y001046D03*
X005066Y001146D03*
X005051Y001136D03*
X005046Y001131D03*
X005036Y001126D03*
X005031Y001121D03*
X005021Y001116D03*
X005016Y001111D03*
X005011Y001106D03*
X005001Y001101D03*
X004996Y001096D03*
X004981Y001086D03*
X004966Y001076D03*
X004961Y001071D03*
X004946Y001061D03*
X004901Y001031D03*
X004886Y001021D03*
X004881Y001016D03*
X004876Y001011D03*
X004861Y001001D03*
X004966Y000726D03*
X004846Y001376D03*
X004726Y001531D03*
X004726Y001536D03*
X004721Y001541D03*
X004721Y001546D03*
D13*
X004061Y002181D03*
X003776Y002031D03*
X003861Y001001D03*
X004966Y000731D03*
X005326Y000896D03*
X006056Y001076D03*
X006311Y001596D03*
X006316Y001601D03*
X006316Y002141D03*
X005376Y002646D03*
X004966Y002451D03*
D14*
X005376Y002641D03*
X006221Y002191D03*
X004966Y000736D03*
X004691Y000851D03*
X004026Y002161D03*
D15*
X004954Y002481D03*
X005374Y002636D03*
X003994Y000941D03*
X004964Y000741D03*
D16*
X004964Y000746D03*
X003969Y002116D03*
D17*
X004966Y000751D03*
X006061Y002246D03*
D18*
X006071Y002236D03*
X004966Y000756D03*
D19*
X004966Y000761D03*
X006081Y002221D03*
D20*
X005364Y002606D03*
X004964Y000766D03*
D21*
X004966Y000771D03*
D22*
X004964Y000776D03*
X005339Y002586D03*
D23*
X005321Y002571D03*
X004966Y000781D03*
D24*
X004966Y000786D03*
X005311Y002561D03*
D25*
X004964Y000791D03*
D26*
X004964Y000796D03*
X005609Y000941D03*
D27*
X005639Y000956D03*
X004964Y000801D03*
D28*
X004964Y000806D03*
X005664Y000971D03*
D29*
X005694Y000991D03*
X004964Y000811D03*
D30*
X004964Y000816D03*
X005699Y000996D03*
X005704Y001001D03*
D31*
X004964Y000821D03*
D32*
X004964Y000826D03*
D33*
X004781Y000936D03*
X004846Y001351D03*
X004711Y001581D03*
X004706Y001591D03*
X004706Y001596D03*
X005251Y001711D03*
X005416Y001686D03*
X005471Y001216D03*
X005436Y001051D03*
X004231Y000826D03*
X005091Y002281D03*
D34*
X004966Y000831D03*
D35*
X005046Y001161D03*
X004231Y000831D03*
X003756Y001486D03*
X003751Y001491D03*
X003746Y001501D03*
X003741Y001506D03*
X003736Y001511D03*
X003731Y001516D03*
X003726Y001991D03*
X003731Y001996D03*
X003736Y002001D03*
X004071Y002186D03*
X004196Y002406D03*
X004201Y002411D03*
X004206Y002416D03*
X006096Y001106D03*
X006101Y001111D03*
X006186Y001501D03*
X006346Y001626D03*
X006351Y001631D03*
X006351Y002111D03*
X006346Y002116D03*
D36*
X005179Y000836D03*
X004229Y000846D03*
X003984Y002126D03*
D37*
X003976Y002121D03*
X003926Y002091D03*
X004751Y000836D03*
X006041Y002266D03*
X006161Y002206D03*
X005161Y002541D03*
D38*
X004961Y002466D03*
X004316Y002486D03*
X004036Y002166D03*
X003931Y000961D03*
X004231Y000836D03*
X005986Y001036D03*
D39*
X005209Y000841D03*
X004719Y000841D03*
X005129Y002536D03*
D40*
X006186Y002201D03*
X004231Y000841D03*
X003896Y002086D03*
X004006Y002146D03*
D41*
X004019Y002156D03*
X003879Y002081D03*
X004704Y000846D03*
X005224Y000846D03*
X006204Y002196D03*
D42*
X006009Y002291D03*
X005039Y001186D03*
X005239Y000851D03*
X005494Y001016D03*
X005969Y001031D03*
D43*
X006056Y002251D03*
X004231Y000851D03*
D44*
X004494Y000951D03*
X004674Y000856D03*
X005029Y001176D03*
X005254Y000856D03*
X006234Y002186D03*
X003849Y002071D03*
D45*
X004229Y000856D03*
D46*
X004664Y000861D03*
X005029Y001171D03*
X005264Y000861D03*
X005994Y001041D03*
X006244Y002181D03*
X003839Y002066D03*
D47*
X004229Y000861D03*
X005389Y002621D03*
D48*
X004294Y002476D03*
X003829Y002061D03*
X004654Y000866D03*
X005274Y000866D03*
X006004Y001046D03*
X006219Y001536D03*
X006224Y001541D03*
X006259Y001566D03*
D49*
X004229Y000866D03*
D50*
X004644Y000871D03*
X005284Y000871D03*
X005689Y000911D03*
X006024Y001056D03*
X006209Y001526D03*
X006214Y001531D03*
X006274Y002166D03*
X004284Y002471D03*
X003809Y002051D03*
D51*
X004229Y000871D03*
D52*
X003901Y000976D03*
X003891Y000981D03*
X003801Y002046D03*
X004051Y002176D03*
X004276Y002466D03*
X005291Y000876D03*
X005301Y000881D03*
X006276Y001576D03*
X006286Y001581D03*
X006286Y002161D03*
D53*
X006266Y002171D03*
X006266Y001571D03*
X006016Y001051D03*
X005026Y001191D03*
X004636Y000876D03*
X004501Y000956D03*
X003911Y000971D03*
X003816Y002056D03*
X004961Y002461D03*
D54*
X005344Y002591D03*
X004229Y000876D03*
D55*
X004351Y000881D03*
D56*
X003876Y000991D03*
X003791Y002041D03*
X004261Y002456D03*
X004266Y002461D03*
X005311Y000886D03*
X006041Y001066D03*
X006301Y002151D03*
D57*
X005434Y001601D03*
X005434Y001596D03*
X005259Y001776D03*
X004859Y001251D03*
X004859Y001246D03*
X004754Y000886D03*
X005479Y001146D03*
X004659Y001746D03*
X004659Y001751D03*
X005079Y002366D03*
X005079Y002371D03*
D58*
X004329Y000886D03*
X004319Y000891D03*
D59*
X004509Y000961D03*
X005014Y001196D03*
X005319Y000891D03*
X006049Y001071D03*
X006199Y001516D03*
X006304Y001591D03*
X006309Y002146D03*
X004254Y002451D03*
X003784Y002036D03*
X003869Y000996D03*
D60*
X004669Y001716D03*
X004664Y001726D03*
X004664Y001731D03*
X005259Y001766D03*
X005259Y001771D03*
X005434Y001611D03*
X005434Y001061D03*
X004759Y000891D03*
X005084Y002351D03*
D61*
X005081Y002346D03*
X005256Y001761D03*
X005431Y001621D03*
X005431Y001616D03*
X005476Y001166D03*
X005476Y001161D03*
X004856Y001271D03*
X004856Y001276D03*
X004761Y000896D03*
X004531Y001006D03*
X004671Y001706D03*
X004671Y001711D03*
X004666Y001721D03*
D62*
X004281Y000911D03*
X004291Y000906D03*
X004311Y000896D03*
D63*
X003854Y001006D03*
X003849Y001011D03*
X003769Y002026D03*
X004239Y002441D03*
X004244Y002446D03*
X005339Y000906D03*
X005334Y000901D03*
X006064Y001081D03*
X006194Y001511D03*
X006324Y001606D03*
X006324Y002136D03*
D64*
X005426Y001636D03*
X005256Y001751D03*
X004676Y001691D03*
X004676Y001686D03*
X005086Y002331D03*
X005476Y001181D03*
X005476Y001176D03*
X005476Y001171D03*
X004761Y000901D03*
D65*
X004299Y000901D03*
X004274Y000916D03*
X004264Y000921D03*
X004259Y000926D03*
X004249Y000931D03*
D66*
X003769Y001091D03*
X003764Y001096D03*
X003764Y001101D03*
X003759Y001106D03*
X003754Y001431D03*
X003759Y001441D03*
X003764Y001446D03*
X003764Y001451D03*
X003769Y001461D03*
X003769Y001466D03*
X003669Y001586D03*
X003664Y001591D03*
X003659Y001601D03*
X003664Y001916D03*
X003669Y001926D03*
X003674Y001931D03*
X004084Y002191D03*
X004139Y002336D03*
X004144Y002341D03*
X004144Y002346D03*
X004149Y002351D03*
X004154Y002356D03*
X004814Y000986D03*
X005689Y000906D03*
X006154Y001171D03*
X006159Y001176D03*
X006159Y001181D03*
X006164Y001186D03*
X006169Y001196D03*
X006179Y001491D03*
X006404Y001686D03*
X006409Y001696D03*
X006414Y001701D03*
X006419Y001706D03*
X006424Y001716D03*
X006424Y002026D03*
X006419Y002036D03*
X006414Y002041D03*
X006409Y002046D03*
X006404Y002056D03*
D67*
X005544Y002336D03*
X005549Y002366D03*
X005554Y002396D03*
X005559Y002426D03*
X005564Y002451D03*
X005564Y002456D03*
X005569Y002481D03*
X005569Y002486D03*
X005574Y002511D03*
X005574Y002516D03*
X005594Y002636D03*
X005594Y002641D03*
X005084Y002326D03*
X005254Y001746D03*
X005429Y001641D03*
X004854Y001296D03*
X004854Y001291D03*
X004764Y000906D03*
X004684Y001666D03*
X004684Y001671D03*
X004679Y001676D03*
X004679Y001681D03*
D68*
X004511Y000966D03*
X003841Y001016D03*
X003756Y002016D03*
X003761Y002021D03*
X004231Y002436D03*
X005506Y002541D03*
X005976Y002306D03*
X006331Y002131D03*
X006336Y002126D03*
X006336Y001616D03*
X006331Y001611D03*
X006191Y001506D03*
X006076Y001091D03*
X006071Y001086D03*
X005466Y001026D03*
X005346Y000911D03*
D69*
X005476Y001186D03*
X005476Y001191D03*
X005516Y001296D03*
X005526Y001321D03*
X005536Y001346D03*
X005546Y001371D03*
X005571Y001436D03*
X005581Y001461D03*
X005591Y001486D03*
X005601Y001511D03*
X005626Y001576D03*
X005636Y001601D03*
X005646Y001626D03*
X005656Y001651D03*
X005681Y001716D03*
X005691Y001741D03*
X005701Y001766D03*
X005711Y001791D03*
X005746Y001881D03*
X005756Y001906D03*
X005766Y001931D03*
X005776Y001956D03*
X005801Y002021D03*
X005811Y002046D03*
X005821Y002071D03*
X005831Y002096D03*
X005841Y002121D03*
X005851Y002146D03*
X005856Y002161D03*
X005866Y002186D03*
X005541Y002311D03*
X005541Y002316D03*
X005541Y002321D03*
X005541Y002326D03*
X005541Y002331D03*
X005546Y002341D03*
X005546Y002346D03*
X005546Y002351D03*
X005546Y002356D03*
X005546Y002361D03*
X005551Y002371D03*
X005551Y002376D03*
X005551Y002381D03*
X005551Y002386D03*
X005551Y002391D03*
X005556Y002401D03*
X005556Y002406D03*
X005556Y002411D03*
X005556Y002416D03*
X005556Y002421D03*
X005561Y002431D03*
X005561Y002436D03*
X005561Y002441D03*
X005561Y002446D03*
X005566Y002461D03*
X005566Y002466D03*
X005566Y002471D03*
X005566Y002476D03*
X005571Y002491D03*
X005571Y002496D03*
X005571Y002501D03*
X005571Y002506D03*
X005596Y002646D03*
X005596Y002651D03*
X005536Y002306D03*
X005536Y002301D03*
X005536Y002296D03*
X005536Y002291D03*
X005536Y002286D03*
X005536Y002281D03*
X005531Y002276D03*
X005531Y002271D03*
X005531Y002266D03*
X005531Y002261D03*
X005531Y002256D03*
X005531Y002251D03*
X005526Y002246D03*
X005526Y002241D03*
X005526Y002236D03*
X005526Y002231D03*
X005526Y002226D03*
X005526Y002221D03*
X005521Y002211D03*
X005521Y002206D03*
X005521Y002201D03*
X005521Y002196D03*
X005521Y002191D03*
X005516Y002181D03*
X005516Y002176D03*
X005516Y002171D03*
X005516Y002166D03*
X005511Y002156D03*
X005511Y002151D03*
X005511Y002146D03*
X005511Y002141D03*
X005511Y002136D03*
X005506Y002126D03*
X005506Y002121D03*
X005506Y002116D03*
X005506Y002111D03*
X005506Y002106D03*
X005501Y002096D03*
X005501Y002091D03*
X005501Y002086D03*
X005501Y002081D03*
X005501Y002076D03*
X005496Y002066D03*
X005496Y002061D03*
X005496Y002056D03*
X005496Y002051D03*
X005491Y002041D03*
X005491Y002036D03*
X005491Y002031D03*
X005491Y002026D03*
X005491Y002021D03*
X005486Y002011D03*
X005486Y002006D03*
X005486Y002001D03*
X005486Y001996D03*
X005486Y001991D03*
X005481Y001981D03*
X005481Y001976D03*
X005481Y001971D03*
X005481Y001966D03*
X005481Y001961D03*
X005476Y001951D03*
X005476Y001946D03*
X005476Y001941D03*
X005476Y001936D03*
X005476Y001931D03*
X005471Y001921D03*
X005471Y001916D03*
X005471Y001911D03*
X005471Y001906D03*
X005466Y001896D03*
X005466Y001891D03*
X005466Y001886D03*
X005466Y001881D03*
X005466Y001876D03*
X005461Y001866D03*
X005461Y001861D03*
X005461Y001856D03*
X005461Y001851D03*
X005461Y001846D03*
X005456Y001836D03*
X005456Y001831D03*
X005456Y001826D03*
X005456Y001821D03*
X005456Y001816D03*
X005451Y001806D03*
X005451Y001801D03*
X005451Y001796D03*
X005451Y001791D03*
X005446Y001781D03*
X005446Y001776D03*
X005446Y001771D03*
X005446Y001766D03*
X005446Y001761D03*
X005426Y001646D03*
X005306Y001606D03*
X005316Y001581D03*
X005326Y001556D03*
X005296Y001631D03*
X005256Y001741D03*
X004971Y001816D03*
X004966Y001796D03*
X004961Y001776D03*
X004956Y001751D03*
X004951Y001731D03*
X004946Y001711D03*
X004941Y001686D03*
X004936Y001666D03*
X004931Y001646D03*
X004926Y001621D03*
X004921Y001601D03*
X004916Y001581D03*
X004911Y001556D03*
X004906Y001536D03*
X004901Y001516D03*
X004896Y001491D03*
X004891Y001476D03*
X004891Y001471D03*
X004886Y001461D03*
X004886Y001456D03*
X004886Y001451D03*
X004881Y001436D03*
X004881Y001431D03*
X004881Y001426D03*
X004876Y001416D03*
X004876Y001411D03*
X004851Y001306D03*
X004851Y001301D03*
X004736Y001241D03*
X004736Y001236D03*
X004736Y001231D03*
X004736Y001226D03*
X004736Y001221D03*
X004736Y001216D03*
X004736Y001211D03*
X004736Y001206D03*
X004736Y001201D03*
X004741Y001196D03*
X004741Y001191D03*
X004741Y001186D03*
X004741Y001181D03*
X004741Y001176D03*
X004741Y001171D03*
X004741Y001166D03*
X004741Y001161D03*
X004741Y001156D03*
X004741Y001151D03*
X004746Y001146D03*
X004746Y001141D03*
X004746Y001136D03*
X004746Y001131D03*
X004746Y001126D03*
X004746Y001121D03*
X004746Y001116D03*
X004746Y001111D03*
X004746Y001106D03*
X004746Y001101D03*
X004751Y001096D03*
X004751Y001091D03*
X004751Y001086D03*
X004751Y001081D03*
X004751Y001076D03*
X004751Y001071D03*
X004751Y001066D03*
X004751Y001061D03*
X004751Y001056D03*
X004751Y001051D03*
X004756Y001046D03*
X004756Y001041D03*
X004756Y001036D03*
X004756Y001031D03*
X004756Y001026D03*
X004756Y001021D03*
X004756Y001016D03*
X004756Y001011D03*
X004756Y001006D03*
X004756Y001001D03*
X004761Y000996D03*
X004766Y000911D03*
X004731Y001251D03*
X004731Y001256D03*
X004731Y001261D03*
X004731Y001266D03*
X004726Y001301D03*
X004726Y001306D03*
X004726Y001311D03*
X004721Y001351D03*
X004721Y001356D03*
X004716Y001381D03*
X004716Y001386D03*
X004716Y001391D03*
X004716Y001396D03*
X004716Y001401D03*
X004711Y001411D03*
X004711Y001416D03*
X004711Y001421D03*
X004711Y001426D03*
X004711Y001431D03*
X004711Y001436D03*
X004711Y001441D03*
X004711Y001446D03*
X004706Y001456D03*
X004706Y001461D03*
X004706Y001466D03*
X004706Y001471D03*
X004706Y001476D03*
X004706Y001481D03*
X004686Y001656D03*
X004686Y001661D03*
X004976Y001841D03*
X004981Y001861D03*
X004986Y001881D03*
X004991Y001906D03*
X004996Y001926D03*
X005001Y001946D03*
X005006Y001971D03*
X005011Y001991D03*
X005016Y002011D03*
X005021Y002036D03*
X005026Y002056D03*
X005031Y002076D03*
X005036Y002101D03*
X005041Y002121D03*
X005046Y002141D03*
X005051Y002161D03*
X005051Y002166D03*
X005056Y002186D03*
X005061Y002206D03*
X005086Y002316D03*
X005086Y002321D03*
D70*
X004956Y002476D03*
X004611Y002606D03*
X003971Y000946D03*
X005691Y000916D03*
D71*
X005364Y000926D03*
X005359Y000921D03*
X005354Y000916D03*
X006084Y001096D03*
X006089Y001101D03*
X006344Y001621D03*
X006339Y002121D03*
X004224Y002431D03*
X004219Y002426D03*
X004214Y002421D03*
X003749Y002011D03*
X003744Y002006D03*
X003824Y001031D03*
X003829Y001026D03*
X003834Y001021D03*
D72*
X004729Y001271D03*
X004729Y001276D03*
X004729Y001281D03*
X004729Y001286D03*
X004729Y001291D03*
X004729Y001296D03*
X004724Y001316D03*
X004724Y001321D03*
X004724Y001326D03*
X004724Y001331D03*
X004724Y001336D03*
X004724Y001341D03*
X004724Y001346D03*
X004719Y001361D03*
X004719Y001366D03*
X004719Y001371D03*
X004719Y001376D03*
X004714Y001406D03*
X004709Y001451D03*
X004774Y001481D03*
X004779Y001471D03*
X004784Y001461D03*
X004789Y001451D03*
X004794Y001441D03*
X004799Y001431D03*
X004804Y001421D03*
X004809Y001411D03*
X004879Y001421D03*
X004884Y001441D03*
X004884Y001446D03*
X004889Y001466D03*
X004894Y001481D03*
X004894Y001486D03*
X004899Y001496D03*
X004899Y001501D03*
X004899Y001506D03*
X004899Y001511D03*
X004904Y001521D03*
X004904Y001526D03*
X004904Y001531D03*
X004909Y001541D03*
X004909Y001546D03*
X004909Y001551D03*
X004914Y001561D03*
X004914Y001566D03*
X004914Y001571D03*
X004914Y001576D03*
X004919Y001586D03*
X004919Y001591D03*
X004919Y001596D03*
X004924Y001606D03*
X004924Y001611D03*
X004924Y001616D03*
X004929Y001626D03*
X004929Y001631D03*
X004929Y001636D03*
X004929Y001641D03*
X004934Y001651D03*
X004934Y001656D03*
X004934Y001661D03*
X004939Y001671D03*
X004939Y001676D03*
X004939Y001681D03*
X004944Y001691D03*
X004944Y001696D03*
X004944Y001701D03*
X004944Y001706D03*
X004949Y001716D03*
X004949Y001721D03*
X004949Y001726D03*
X004954Y001736D03*
X004954Y001741D03*
X004954Y001746D03*
X004959Y001756D03*
X004959Y001761D03*
X004959Y001766D03*
X004959Y001771D03*
X004964Y001781D03*
X004964Y001786D03*
X004964Y001791D03*
X004969Y001801D03*
X004969Y001806D03*
X004969Y001811D03*
X004974Y001821D03*
X004974Y001826D03*
X004974Y001831D03*
X004974Y001836D03*
X004979Y001846D03*
X004979Y001851D03*
X004979Y001856D03*
X004984Y001866D03*
X004984Y001871D03*
X004984Y001876D03*
X004989Y001886D03*
X004989Y001891D03*
X004989Y001896D03*
X004989Y001901D03*
X004994Y001911D03*
X004994Y001916D03*
X004994Y001921D03*
X004999Y001931D03*
X004999Y001936D03*
X004999Y001941D03*
X005004Y001951D03*
X005004Y001956D03*
X005004Y001961D03*
X005004Y001966D03*
X005009Y001976D03*
X005009Y001981D03*
X005009Y001986D03*
X005014Y001996D03*
X005014Y002001D03*
X005014Y002006D03*
X005019Y002016D03*
X005019Y002021D03*
X005019Y002026D03*
X005019Y002031D03*
X005024Y002041D03*
X005024Y002046D03*
X005024Y002051D03*
X005029Y002061D03*
X005029Y002066D03*
X005029Y002071D03*
X005034Y002081D03*
X005034Y002086D03*
X005034Y002091D03*
X005034Y002096D03*
X005039Y002106D03*
X005039Y002111D03*
X005039Y002116D03*
X005044Y002126D03*
X005044Y002131D03*
X005044Y002136D03*
X005049Y002146D03*
X005049Y002151D03*
X005049Y002156D03*
X005054Y002171D03*
X005054Y002176D03*
X005054Y002181D03*
X005059Y002191D03*
X005059Y002196D03*
X005059Y002201D03*
X005064Y002211D03*
X005064Y002216D03*
X005064Y002221D03*
X005134Y002221D03*
X005139Y002211D03*
X005144Y002201D03*
X005149Y002191D03*
X005154Y002181D03*
X005159Y002171D03*
X005164Y002161D03*
X005169Y002151D03*
X005174Y002141D03*
X005179Y002131D03*
X005184Y002121D03*
X005189Y002111D03*
X005194Y002101D03*
X005199Y002091D03*
X005204Y002081D03*
X005209Y002071D03*
X005214Y002061D03*
X005219Y002051D03*
X005224Y002041D03*
X005229Y002031D03*
X005234Y002021D03*
X005239Y002016D03*
X005239Y002011D03*
X005244Y002006D03*
X005244Y002001D03*
X005249Y001996D03*
X005249Y001991D03*
X005254Y001986D03*
X005254Y001981D03*
X005259Y001976D03*
X005264Y001966D03*
X005269Y001956D03*
X005274Y001946D03*
X005279Y001936D03*
X005284Y001926D03*
X005289Y001916D03*
X005294Y001906D03*
X005299Y001896D03*
X005304Y001886D03*
X005254Y001736D03*
X005289Y001656D03*
X005289Y001651D03*
X005289Y001646D03*
X005294Y001641D03*
X005294Y001636D03*
X005299Y001626D03*
X005299Y001621D03*
X005304Y001616D03*
X005304Y001611D03*
X005309Y001601D03*
X005309Y001596D03*
X005314Y001591D03*
X005314Y001586D03*
X005319Y001576D03*
X005319Y001571D03*
X005324Y001566D03*
X005324Y001561D03*
X005329Y001551D03*
X005329Y001546D03*
X005334Y001541D03*
X005334Y001536D03*
X005334Y001531D03*
X005339Y001526D03*
X005339Y001521D03*
X005344Y001516D03*
X005344Y001511D03*
X005344Y001506D03*
X005349Y001496D03*
X005354Y001486D03*
X005354Y001481D03*
X005359Y001471D03*
X005364Y001461D03*
X005364Y001456D03*
X005369Y001446D03*
X005374Y001436D03*
X005379Y001426D03*
X005379Y001421D03*
X005384Y001411D03*
X005389Y001401D03*
X005389Y001396D03*
X005394Y001386D03*
X005399Y001376D03*
X005399Y001371D03*
X005404Y001361D03*
X005409Y001351D03*
X005414Y001336D03*
X005419Y001326D03*
X005429Y001301D03*
X005509Y001281D03*
X005514Y001286D03*
X005514Y001291D03*
X005519Y001301D03*
X005519Y001306D03*
X005524Y001311D03*
X005524Y001316D03*
X005529Y001326D03*
X005529Y001331D03*
X005534Y001336D03*
X005534Y001341D03*
X005539Y001351D03*
X005539Y001356D03*
X005544Y001361D03*
X005544Y001366D03*
X005549Y001376D03*
X005549Y001381D03*
X005554Y001386D03*
X005554Y001391D03*
X005554Y001396D03*
X005559Y001401D03*
X005559Y001406D03*
X005564Y001411D03*
X005564Y001416D03*
X005564Y001421D03*
X005569Y001426D03*
X005569Y001431D03*
X005574Y001441D03*
X005574Y001446D03*
X005579Y001451D03*
X005579Y001456D03*
X005584Y001466D03*
X005584Y001471D03*
X005589Y001476D03*
X005589Y001481D03*
X005594Y001491D03*
X005594Y001496D03*
X005599Y001501D03*
X005599Y001506D03*
X005604Y001516D03*
X005604Y001521D03*
X005609Y001526D03*
X005609Y001531D03*
X005609Y001536D03*
X005614Y001541D03*
X005614Y001546D03*
X005619Y001551D03*
X005619Y001556D03*
X005619Y001561D03*
X005624Y001566D03*
X005624Y001571D03*
X005629Y001581D03*
X005629Y001586D03*
X005634Y001591D03*
X005634Y001596D03*
X005639Y001606D03*
X005639Y001611D03*
X005644Y001616D03*
X005644Y001621D03*
X005649Y001631D03*
X005649Y001636D03*
X005654Y001641D03*
X005654Y001646D03*
X005659Y001656D03*
X005659Y001661D03*
X005664Y001666D03*
X005664Y001671D03*
X005664Y001676D03*
X005669Y001681D03*
X005669Y001686D03*
X005674Y001691D03*
X005674Y001696D03*
X005674Y001701D03*
X005679Y001706D03*
X005679Y001711D03*
X005684Y001721D03*
X005684Y001726D03*
X005689Y001731D03*
X005689Y001736D03*
X005694Y001746D03*
X005694Y001751D03*
X005699Y001756D03*
X005699Y001761D03*
X005704Y001771D03*
X005704Y001776D03*
X005709Y001781D03*
X005709Y001786D03*
X005714Y001796D03*
X005714Y001801D03*
X005719Y001806D03*
X005719Y001811D03*
X005719Y001816D03*
X005724Y001821D03*
X005724Y001826D03*
X005729Y001831D03*
X005729Y001836D03*
X005729Y001841D03*
X005734Y001846D03*
X005734Y001851D03*
X005739Y001856D03*
X005739Y001861D03*
X005739Y001866D03*
X005744Y001871D03*
X005744Y001876D03*
X005749Y001886D03*
X005749Y001891D03*
X005754Y001896D03*
X005754Y001901D03*
X005759Y001911D03*
X005759Y001916D03*
X005764Y001921D03*
X005764Y001926D03*
X005769Y001936D03*
X005769Y001941D03*
X005774Y001946D03*
X005774Y001951D03*
X005779Y001961D03*
X005779Y001966D03*
X005784Y001971D03*
X005784Y001976D03*
X005784Y001981D03*
X005789Y001986D03*
X005789Y001991D03*
X005794Y001996D03*
X005794Y002001D03*
X005794Y002006D03*
X005799Y002011D03*
X005799Y002016D03*
X005804Y002026D03*
X005804Y002031D03*
X005809Y002036D03*
X005809Y002041D03*
X005814Y002051D03*
X005814Y002056D03*
X005819Y002061D03*
X005819Y002066D03*
X005824Y002076D03*
X005824Y002081D03*
X005829Y002086D03*
X005829Y002091D03*
X005834Y002101D03*
X005834Y002106D03*
X005839Y002111D03*
X005839Y002116D03*
X005844Y002126D03*
X005844Y002131D03*
X005849Y002136D03*
X005849Y002141D03*
X005854Y002151D03*
X005854Y002156D03*
X005859Y002166D03*
X005859Y002171D03*
X005864Y002176D03*
X005864Y002181D03*
X005869Y002191D03*
X005869Y002196D03*
X005874Y002201D03*
X005919Y002321D03*
X005919Y002326D03*
X005924Y002336D03*
X005929Y002351D03*
X005934Y002361D03*
X005939Y002376D03*
X005944Y002386D03*
X005949Y002401D03*
X005959Y002426D03*
X005969Y002451D03*
X005974Y002466D03*
X005979Y002476D03*
X005984Y002491D03*
X005989Y002501D03*
X005994Y002516D03*
X005999Y002526D03*
X006004Y002541D03*
X006009Y002551D03*
X006014Y002566D03*
X006019Y002576D03*
X006024Y002591D03*
X006029Y002601D03*
X006029Y002606D03*
X006034Y002616D03*
X006039Y002626D03*
X006039Y002631D03*
X006039Y002636D03*
X006044Y002641D03*
X006044Y002646D03*
X006049Y002651D03*
X005524Y002216D03*
X005519Y002186D03*
X005514Y002161D03*
X005509Y002131D03*
X005504Y002101D03*
X005499Y002071D03*
X005494Y002046D03*
X005489Y002016D03*
X005484Y001986D03*
X005479Y001956D03*
X005474Y001926D03*
X005469Y001901D03*
X005464Y001871D03*
X005459Y001841D03*
X005454Y001811D03*
X005449Y001786D03*
X005444Y001756D03*
X005424Y001651D03*
X004854Y001311D03*
X004734Y001246D03*
X004769Y000916D03*
X005439Y001056D03*
X004689Y001646D03*
X004689Y001651D03*
X005089Y002306D03*
X005089Y002311D03*
X004974Y002406D03*
D73*
X005689Y000921D03*
D74*
X005476Y001196D03*
X005476Y001201D03*
X005436Y001281D03*
X005436Y001286D03*
X005431Y001291D03*
X005431Y001296D03*
X005426Y001306D03*
X005426Y001311D03*
X005421Y001316D03*
X005421Y001321D03*
X005416Y001331D03*
X005411Y001341D03*
X005411Y001346D03*
X005406Y001356D03*
X005401Y001366D03*
X005396Y001381D03*
X005391Y001391D03*
X005386Y001406D03*
X005381Y001416D03*
X005376Y001431D03*
X005371Y001441D03*
X005366Y001451D03*
X005361Y001466D03*
X005356Y001476D03*
X005351Y001491D03*
X005346Y001501D03*
X005421Y001656D03*
X005421Y001661D03*
X005371Y001756D03*
X005366Y001766D03*
X005361Y001776D03*
X005356Y001781D03*
X005356Y001786D03*
X005351Y001791D03*
X005351Y001796D03*
X005346Y001801D03*
X005346Y001806D03*
X005341Y001811D03*
X005341Y001816D03*
X005336Y001821D03*
X005336Y001826D03*
X005331Y001831D03*
X005331Y001836D03*
X005326Y001841D03*
X005326Y001846D03*
X005321Y001851D03*
X005321Y001856D03*
X005316Y001861D03*
X005316Y001866D03*
X005311Y001871D03*
X005311Y001876D03*
X005306Y001881D03*
X005301Y001891D03*
X005296Y001901D03*
X005291Y001911D03*
X005286Y001921D03*
X005281Y001931D03*
X005276Y001941D03*
X005271Y001951D03*
X005266Y001961D03*
X005261Y001971D03*
X005231Y002026D03*
X005226Y002036D03*
X005221Y002046D03*
X005216Y002056D03*
X005211Y002066D03*
X005206Y002076D03*
X005201Y002086D03*
X005196Y002096D03*
X005191Y002106D03*
X005186Y002116D03*
X005181Y002126D03*
X005176Y002136D03*
X005171Y002146D03*
X005166Y002156D03*
X005161Y002166D03*
X005156Y002176D03*
X005151Y002186D03*
X005146Y002196D03*
X005141Y002206D03*
X005136Y002216D03*
X005256Y001731D03*
X005191Y001616D03*
X005176Y001591D03*
X005161Y001566D03*
X005156Y001556D03*
X005146Y001541D03*
X005141Y001531D03*
X005136Y001521D03*
X005131Y001516D03*
X005126Y001506D03*
X005121Y001496D03*
X005116Y001491D03*
X005111Y001481D03*
X005106Y001471D03*
X005101Y001461D03*
X005096Y001456D03*
X005096Y001451D03*
X005091Y001446D03*
X005091Y001441D03*
X005086Y001436D03*
X005081Y001431D03*
X005081Y001426D03*
X005076Y001421D03*
X005076Y001416D03*
X005071Y001411D03*
X005066Y001406D03*
X005066Y001401D03*
X005061Y001396D03*
X005061Y001391D03*
X005056Y001386D03*
X005051Y001381D03*
X005051Y001376D03*
X005046Y001371D03*
X005046Y001366D03*
X005041Y001361D03*
X005036Y001356D03*
X005036Y001351D03*
X005031Y001346D03*
X005031Y001341D03*
X005026Y001336D03*
X005021Y001331D03*
X005021Y001326D03*
X005016Y001321D03*
X005016Y001316D03*
X005011Y001311D03*
X005006Y001306D03*
X005006Y001301D03*
X005001Y001296D03*
X005001Y001291D03*
X004996Y001286D03*
X004991Y001281D03*
X004991Y001276D03*
X004986Y001271D03*
X004986Y001266D03*
X004981Y001261D03*
X004976Y001256D03*
X004976Y001251D03*
X004971Y001246D03*
X004971Y001241D03*
X004966Y001236D03*
X004961Y001231D03*
X004961Y001226D03*
X004956Y001221D03*
X004851Y001316D03*
X004851Y001321D03*
X004806Y001416D03*
X004801Y001426D03*
X004796Y001436D03*
X004791Y001446D03*
X004786Y001456D03*
X004781Y001466D03*
X004776Y001476D03*
X004691Y001641D03*
X004771Y000921D03*
X005921Y002331D03*
X005926Y002341D03*
X005926Y002346D03*
X005931Y002356D03*
X005936Y002366D03*
X005936Y002371D03*
X005941Y002381D03*
X005946Y002391D03*
X005946Y002396D03*
X005951Y002406D03*
X005951Y002411D03*
X005956Y002416D03*
X005956Y002421D03*
X005961Y002431D03*
X005961Y002436D03*
X005966Y002441D03*
X005966Y002446D03*
X005971Y002456D03*
X005971Y002461D03*
X005976Y002471D03*
X005981Y002481D03*
X005981Y002486D03*
X005986Y002496D03*
X005991Y002506D03*
X005991Y002511D03*
X005996Y002521D03*
X006001Y002531D03*
X006001Y002536D03*
X006006Y002546D03*
X006011Y002556D03*
X006011Y002561D03*
X006016Y002571D03*
X006021Y002581D03*
X006021Y002586D03*
X006026Y002596D03*
X006031Y002611D03*
X006036Y002621D03*
D75*
X006054Y002256D03*
X005689Y000926D03*
D76*
X005476Y001211D03*
X005421Y001666D03*
X005421Y001671D03*
X004961Y001216D03*
X004776Y000926D03*
X004701Y001611D03*
X004701Y001616D03*
X005091Y002291D03*
X005091Y002296D03*
D77*
X004609Y002591D03*
X006064Y002241D03*
X005689Y000931D03*
D78*
X005369Y000931D03*
X006104Y001116D03*
X006109Y001121D03*
X006359Y001636D03*
X006364Y001641D03*
X006369Y001646D03*
X006369Y002096D03*
X006364Y002101D03*
X006359Y002106D03*
X004969Y002446D03*
X003749Y001496D03*
X003759Y001481D03*
X003724Y001521D03*
X003719Y001526D03*
X003714Y001531D03*
X003709Y001536D03*
X003714Y001981D03*
X003719Y001986D03*
X003809Y001046D03*
X003814Y001041D03*
X003819Y001036D03*
D79*
X004704Y001601D03*
X004704Y001606D03*
X004849Y001346D03*
X004849Y001341D03*
X004849Y001336D03*
X004779Y000931D03*
X005419Y001676D03*
X005419Y001681D03*
X005254Y001716D03*
X005094Y002286D03*
X004974Y002411D03*
D80*
X005599Y000936D03*
D81*
X004241Y000936D03*
D82*
X004784Y000941D03*
X004849Y001356D03*
X004714Y001571D03*
X004714Y001576D03*
X004709Y001586D03*
X005254Y001706D03*
X005414Y001691D03*
X005474Y001221D03*
X005094Y002271D03*
X005094Y002276D03*
X005559Y002526D03*
D83*
X003994Y002136D03*
X004474Y000941D03*
D84*
X005624Y000946D03*
D85*
X005474Y001236D03*
X005414Y001701D03*
X005414Y001706D03*
X004844Y001371D03*
X004719Y001551D03*
X004719Y001556D03*
X004989Y001091D03*
X004974Y001081D03*
X004954Y001066D03*
X004939Y001056D03*
X004934Y001051D03*
X004924Y001046D03*
X004869Y001006D03*
X004854Y000996D03*
X004789Y000946D03*
X005094Y002261D03*
X005094Y002266D03*
X005374Y002651D03*
X005934Y002316D03*
D86*
X006016Y002286D03*
X005956Y001026D03*
X004486Y000946D03*
D87*
X005631Y000951D03*
X004611Y002546D03*
D88*
X005409Y001721D03*
X005474Y001246D03*
X005059Y001141D03*
X004974Y001211D03*
X004844Y001381D03*
X004844Y001386D03*
X004844Y001391D03*
X004729Y001521D03*
X004729Y001526D03*
X004914Y001041D03*
X004909Y001036D03*
X004894Y001026D03*
X004789Y000951D03*
X004529Y000991D03*
D89*
X003959Y000951D03*
X003864Y002076D03*
X004344Y002496D03*
X004959Y002471D03*
D90*
X004971Y002421D03*
X005096Y002246D03*
X005096Y002241D03*
X005546Y002531D03*
X005411Y001726D03*
X005251Y001681D03*
X005471Y001256D03*
X005471Y001251D03*
X005066Y001151D03*
X004841Y001396D03*
X004731Y001511D03*
X004731Y001516D03*
X004791Y000956D03*
D91*
X005036Y001181D03*
X003946Y000956D03*
X004326Y002491D03*
D92*
X005649Y000961D03*
D93*
X005446Y001041D03*
X005471Y001266D03*
X005406Y001741D03*
X005406Y001746D03*
X005101Y002226D03*
X004971Y002426D03*
X004736Y001496D03*
X004741Y001486D03*
X004841Y001406D03*
X004796Y000961D03*
X004526Y000986D03*
D94*
X005656Y000966D03*
X004611Y002541D03*
D95*
X005404Y001751D03*
X005249Y001666D03*
X005249Y001661D03*
X005474Y001271D03*
X004799Y000966D03*
D96*
X003921Y000966D03*
X004041Y002171D03*
X004306Y002481D03*
X004611Y002611D03*
X006001Y002296D03*
X006256Y002176D03*
X006251Y001561D03*
X006241Y001556D03*
X006236Y001551D03*
X006231Y001546D03*
D97*
X005471Y001276D03*
X004801Y000971D03*
D98*
X005001Y001201D03*
X005456Y001031D03*
X006116Y001126D03*
X006121Y001131D03*
X006126Y001136D03*
X006371Y002091D03*
X004611Y002616D03*
X004191Y002401D03*
X004186Y002396D03*
X004181Y002391D03*
X004176Y002386D03*
X003711Y001976D03*
X003706Y001971D03*
X003701Y001966D03*
X003706Y001541D03*
X003761Y001476D03*
X003801Y001051D03*
X004516Y000971D03*
D99*
X005674Y000976D03*
X005679Y000981D03*
D100*
X005451Y001036D03*
X004806Y000976D03*
X003726Y001171D03*
X003721Y001181D03*
X003721Y001186D03*
X003721Y001191D03*
X003716Y001201D03*
X003716Y001206D03*
X003716Y001211D03*
X003711Y001221D03*
X003711Y001226D03*
X003711Y001231D03*
X003711Y001236D03*
X003711Y001241D03*
X003706Y001281D03*
X003706Y001286D03*
X003706Y001291D03*
X003711Y001311D03*
X003711Y001316D03*
X003711Y001321D03*
X003711Y001326D03*
X003711Y001331D03*
X003716Y001336D03*
X003716Y001341D03*
X003716Y001346D03*
X003716Y001351D03*
X003721Y001356D03*
X003721Y001361D03*
X003726Y001376D03*
X003636Y001646D03*
X003631Y001661D03*
X003626Y001671D03*
X003626Y001676D03*
X003626Y001681D03*
X003621Y001691D03*
X003621Y001696D03*
X003621Y001701D03*
X003621Y001706D03*
X003616Y001721D03*
X003616Y001726D03*
X003616Y001731D03*
X003616Y001736D03*
X003616Y001741D03*
X003616Y001746D03*
X003616Y001751D03*
X003616Y001756D03*
X003616Y001761D03*
X003616Y001766D03*
X003616Y001771D03*
X003616Y001776D03*
X003616Y001781D03*
X003616Y001786D03*
X003621Y001806D03*
X003621Y001811D03*
X003621Y001816D03*
X003621Y001821D03*
X003626Y001826D03*
X003626Y001831D03*
X003626Y001836D03*
X003631Y001846D03*
X003631Y001851D03*
X004091Y002196D03*
X004091Y002201D03*
X004091Y002206D03*
X004096Y002221D03*
X004096Y002226D03*
X004096Y002231D03*
X004096Y002236D03*
X004101Y002246D03*
X004101Y002251D03*
X004101Y002256D03*
X004106Y002266D03*
X004111Y002281D03*
X006196Y001446D03*
X006201Y001436D03*
X006201Y001431D03*
X006201Y001426D03*
X006206Y001416D03*
X006206Y001411D03*
X006206Y001406D03*
X006206Y001401D03*
X006211Y001391D03*
X006211Y001386D03*
X006211Y001381D03*
X006211Y001376D03*
X006211Y001371D03*
X006211Y001366D03*
X006211Y001361D03*
X006211Y001356D03*
X006211Y001351D03*
X006211Y001346D03*
X006211Y001341D03*
X006211Y001336D03*
X006211Y001331D03*
X006211Y001326D03*
X006211Y001321D03*
X006211Y001316D03*
X006211Y001311D03*
X006206Y001296D03*
X006206Y001291D03*
X006206Y001286D03*
X006206Y001281D03*
X006201Y001276D03*
X006201Y001271D03*
X006201Y001266D03*
X006196Y001256D03*
X006451Y001776D03*
X006456Y001791D03*
X006456Y001796D03*
X006456Y001801D03*
X006461Y001806D03*
X006461Y001811D03*
X006461Y001816D03*
X006461Y001821D03*
X006466Y001831D03*
X006466Y001836D03*
X006466Y001841D03*
X006466Y001846D03*
X006466Y001851D03*
X006466Y001856D03*
X006466Y001861D03*
X006466Y001866D03*
X006466Y001871D03*
X006466Y001876D03*
X006466Y001881D03*
X006466Y001886D03*
X006466Y001891D03*
X006466Y001896D03*
X006466Y001901D03*
X006466Y001906D03*
X006461Y001921D03*
X006461Y001926D03*
X006461Y001931D03*
X006461Y001936D03*
X006456Y001941D03*
X006456Y001946D03*
X006456Y001951D03*
X006451Y001961D03*
X006451Y001966D03*
D101*
X006441Y001991D03*
X006436Y002001D03*
X006431Y002011D03*
X006426Y002021D03*
X006421Y002031D03*
X006441Y001751D03*
X006436Y001741D03*
X006431Y001731D03*
X006426Y001721D03*
X006421Y001711D03*
X006181Y001481D03*
X006186Y001471D03*
X006181Y001216D03*
X006176Y001206D03*
X006171Y001201D03*
X006166Y001191D03*
X004971Y002436D03*
X004136Y002331D03*
X004131Y002326D03*
X004131Y002321D03*
X004126Y002316D03*
X004126Y002311D03*
X003666Y001921D03*
X003661Y001911D03*
X003656Y001906D03*
X003656Y001901D03*
X003651Y001896D03*
X003646Y001886D03*
X003651Y001616D03*
X003651Y001611D03*
X003656Y001606D03*
X003661Y001596D03*
X003766Y001456D03*
X003756Y001436D03*
X003751Y001426D03*
X003746Y001421D03*
X003741Y001411D03*
X003736Y001401D03*
X003736Y001146D03*
X003741Y001136D03*
X003746Y001126D03*
X003751Y001121D03*
X003751Y001116D03*
X003756Y001111D03*
X004521Y000976D03*
D102*
X004809Y000981D03*
X005059Y001156D03*
X006179Y001211D03*
X006184Y001221D03*
X006184Y001226D03*
X006189Y001231D03*
X006189Y001236D03*
X006194Y001241D03*
X006194Y001246D03*
X006194Y001251D03*
X006199Y001261D03*
X006204Y001421D03*
X006199Y001441D03*
X006194Y001451D03*
X006194Y001456D03*
X006189Y001461D03*
X006189Y001466D03*
X006184Y001476D03*
X006179Y001486D03*
X006429Y001726D03*
X006434Y001736D03*
X006439Y001746D03*
X006444Y001756D03*
X006444Y001761D03*
X006449Y001766D03*
X006449Y001771D03*
X006454Y001781D03*
X006454Y001786D03*
X006454Y001956D03*
X006449Y001971D03*
X006449Y001976D03*
X006444Y001981D03*
X006444Y001986D03*
X006439Y001996D03*
X006434Y002006D03*
X006429Y002016D03*
X004124Y002306D03*
X004119Y002301D03*
X004119Y002296D03*
X004114Y002291D03*
X004114Y002286D03*
X004109Y002276D03*
X004109Y002271D03*
X004104Y002261D03*
X003649Y001891D03*
X003644Y001881D03*
X003644Y001876D03*
X003639Y001871D03*
X003639Y001866D03*
X003634Y001861D03*
X003634Y001856D03*
X003629Y001841D03*
X003624Y001686D03*
X003629Y001666D03*
X003634Y001656D03*
X003634Y001651D03*
X003639Y001641D03*
X003639Y001636D03*
X003644Y001631D03*
X003644Y001626D03*
X003649Y001621D03*
X003744Y001416D03*
X003739Y001406D03*
X003734Y001396D03*
X003734Y001391D03*
X003729Y001386D03*
X003729Y001381D03*
X003724Y001371D03*
X003724Y001366D03*
X003719Y001196D03*
X003724Y001176D03*
X003729Y001166D03*
X003729Y001161D03*
X003734Y001156D03*
X003734Y001151D03*
X003739Y001141D03*
X003744Y001131D03*
D103*
X003714Y001216D03*
X003709Y001246D03*
X003709Y001251D03*
X003709Y001256D03*
X003709Y001261D03*
X003709Y001266D03*
X003709Y001271D03*
X003709Y001276D03*
X003709Y001296D03*
X003709Y001301D03*
X003709Y001306D03*
X003619Y001711D03*
X003619Y001716D03*
X003619Y001791D03*
X003619Y001796D03*
X003619Y001801D03*
X004094Y002211D03*
X004094Y002216D03*
X004099Y002241D03*
X004969Y002431D03*
X005534Y002536D03*
X006464Y001916D03*
X006464Y001911D03*
X006464Y001826D03*
X006209Y001396D03*
X006209Y001306D03*
X006209Y001301D03*
X004989Y001206D03*
X004524Y000981D03*
D104*
X005686Y000986D03*
X004611Y002536D03*
D105*
X004964Y002456D03*
X005989Y002301D03*
X006294Y002156D03*
X006294Y001586D03*
X006204Y001521D03*
X006034Y001061D03*
X005474Y001021D03*
X005039Y001166D03*
X003884Y000986D03*
D106*
X003781Y001076D03*
X003776Y001081D03*
X003771Y001086D03*
X003691Y001556D03*
X003686Y001561D03*
X003681Y001566D03*
X003681Y001571D03*
X003676Y001576D03*
X003671Y001581D03*
X003676Y001936D03*
X003681Y001941D03*
X003686Y001946D03*
X003686Y001951D03*
X004156Y002361D03*
X004161Y002366D03*
X004816Y000991D03*
X006141Y001156D03*
X006146Y001161D03*
X006151Y001166D03*
X006391Y001671D03*
X006396Y001676D03*
X006401Y001681D03*
X006406Y001691D03*
X006406Y002051D03*
X006401Y002061D03*
X006396Y002066D03*
X006391Y002071D03*
X005966Y002311D03*
D107*
X005416Y001696D03*
X005251Y001696D03*
X005251Y001701D03*
X005471Y001231D03*
X005471Y001226D03*
X004846Y001361D03*
X004846Y001366D03*
X004716Y001561D03*
X004716Y001566D03*
X004531Y000996D03*
X004971Y002416D03*
D108*
X005089Y002301D03*
X005569Y002521D03*
X005879Y002206D03*
X005364Y001771D03*
X005369Y001761D03*
X005254Y001726D03*
X005254Y001721D03*
X005214Y001656D03*
X005214Y001651D03*
X005209Y001646D03*
X005204Y001641D03*
X005204Y001636D03*
X005199Y001631D03*
X005199Y001626D03*
X005194Y001621D03*
X005189Y001611D03*
X005184Y001606D03*
X005184Y001601D03*
X005179Y001596D03*
X005174Y001586D03*
X005169Y001581D03*
X005169Y001576D03*
X005164Y001571D03*
X005159Y001561D03*
X005154Y001551D03*
X005149Y001546D03*
X005144Y001536D03*
X005139Y001526D03*
X005129Y001511D03*
X005124Y001501D03*
X005114Y001486D03*
X005109Y001476D03*
X005104Y001466D03*
X004849Y001331D03*
X004849Y001326D03*
X004699Y001621D03*
X004699Y001626D03*
X004694Y001631D03*
X004694Y001636D03*
X004529Y001001D03*
X005474Y001206D03*
D109*
X005711Y001006D03*
D110*
X005719Y001011D03*
D111*
X005916Y001016D03*
X006036Y002271D03*
D112*
X005944Y001021D03*
X004359Y002501D03*
X004014Y002151D03*
D113*
X004164Y002371D03*
X004169Y002376D03*
X004174Y002381D03*
X003699Y001961D03*
X003694Y001956D03*
X003694Y001551D03*
X003699Y001546D03*
X003764Y001471D03*
X003784Y001071D03*
X003789Y001066D03*
X003794Y001061D03*
X003799Y001056D03*
X004969Y002441D03*
X006184Y001496D03*
X006374Y001651D03*
X006379Y001656D03*
X006384Y001661D03*
X006389Y001666D03*
X006389Y002076D03*
X006384Y002081D03*
X006379Y002086D03*
X006139Y001151D03*
X006134Y001146D03*
X006129Y001141D03*
D114*
X005479Y001121D03*
X005439Y001566D03*
X005439Y001571D03*
X004859Y001221D03*
X004644Y001796D03*
X004644Y001801D03*
X004974Y002401D03*
D115*
X005076Y002391D03*
X005076Y002386D03*
X005261Y001796D03*
X005261Y001791D03*
X005436Y001576D03*
X005476Y001126D03*
X004861Y001226D03*
X004861Y001231D03*
X004646Y001786D03*
X004646Y001791D03*
D116*
X004649Y001781D03*
X004649Y001776D03*
X004859Y001241D03*
X004859Y001236D03*
X005259Y001786D03*
X005439Y001581D03*
X005479Y001131D03*
X005079Y002376D03*
X005079Y002381D03*
X004614Y002621D03*
D117*
X004651Y001771D03*
X004651Y001766D03*
X004656Y001761D03*
X004656Y001756D03*
X005261Y001781D03*
X005436Y001591D03*
X005436Y001586D03*
X005476Y001141D03*
X005476Y001136D03*
D118*
X005476Y001151D03*
X005476Y001156D03*
X005431Y001606D03*
X004856Y001266D03*
X004856Y001261D03*
X004856Y001256D03*
X004661Y001736D03*
X004661Y001741D03*
X005081Y002356D03*
X005081Y002361D03*
D119*
X005099Y002236D03*
X005099Y002231D03*
X005409Y001736D03*
X005409Y001731D03*
X005249Y001676D03*
X005249Y001671D03*
X005474Y001261D03*
X004844Y001401D03*
X004739Y001491D03*
X004734Y001501D03*
X004734Y001506D03*
D120*
X004674Y001696D03*
X004674Y001701D03*
X004854Y001286D03*
X004854Y001281D03*
X005259Y001756D03*
X005429Y001631D03*
X005429Y001626D03*
X005084Y002336D03*
X005084Y002341D03*
D121*
X003961Y002111D03*
X003946Y002101D03*
X003936Y002096D03*
D122*
X003954Y002106D03*
X006049Y002261D03*
D123*
X004951Y002486D03*
X004611Y002601D03*
X003986Y002131D03*
D124*
X004001Y002141D03*
X004376Y002506D03*
X006031Y002276D03*
D125*
X006089Y002211D03*
X005379Y002616D03*
D126*
X006086Y002216D03*
D127*
X006076Y002226D03*
X004611Y002586D03*
D128*
X006074Y002231D03*
D129*
X006026Y002281D03*
D130*
X004946Y002491D03*
D131*
X004944Y002496D03*
D132*
X004936Y002501D03*
X005396Y002626D03*
D133*
X004926Y002506D03*
X004611Y002581D03*
D134*
X004704Y002511D03*
D135*
X004714Y002516D03*
D136*
X004726Y002521D03*
D137*
X004741Y002526D03*
D138*
X004759Y002531D03*
D139*
X005299Y002546D03*
X005304Y002551D03*
D140*
X004611Y002551D03*
D141*
X005309Y002556D03*
D142*
X004611Y002556D03*
D143*
X004611Y002561D03*
X005316Y002566D03*
D144*
X005326Y002576D03*
X004611Y002566D03*
D145*
X004611Y002571D03*
D146*
X004609Y002576D03*
D147*
X005334Y002581D03*
D148*
X005349Y002596D03*
D149*
X004609Y002596D03*
D150*
X005356Y002601D03*
D151*
X005371Y002611D03*
D152*
X005406Y002631D03*
D153*
X009160Y005535D02*
X009410Y005785D01*
X009410Y005285D01*
X009160Y005535D01*
X009410Y006285D02*
X009160Y006535D01*
X009410Y006785D01*
X009410Y006285D01*
X000910Y006285D02*
X000910Y006785D01*
X000660Y006535D01*
X000910Y006285D01*
X000910Y005910D02*
X000910Y005410D01*
X000660Y005660D01*
X000910Y005910D01*
D154*
X000700Y004770D02*
X000700Y004490D01*
X000700Y004630D02*
X001120Y004630D01*
X000980Y004490D01*
X001050Y004309D02*
X000770Y004309D01*
X000700Y004239D01*
X000700Y004099D01*
X000770Y004029D01*
X001050Y004309D01*
X001120Y004239D01*
X001120Y004099D01*
X001050Y004029D01*
X000770Y004029D01*
X000700Y003849D02*
X001120Y003569D01*
X001120Y003402D02*
X001120Y003262D01*
X001120Y003332D02*
X000700Y003332D01*
X000700Y003262D02*
X000700Y003402D01*
X000700Y003569D02*
X001120Y003849D01*
X002754Y003888D02*
X003035Y003888D01*
X002754Y004168D01*
X002754Y004238D01*
X002824Y004308D01*
X002965Y004308D01*
X003035Y004238D01*
X003215Y004238D02*
X003285Y004308D01*
X003495Y004308D01*
X003495Y003888D01*
X003285Y003888D01*
X003215Y003958D01*
X003215Y004238D01*
X004700Y005535D02*
X004700Y005675D01*
X004700Y005605D02*
X005120Y005605D01*
X005120Y005535D02*
X005120Y005675D01*
X005050Y005842D02*
X004770Y005842D01*
X004700Y005912D01*
X004700Y006052D01*
X004770Y006122D01*
X004700Y006302D02*
X004980Y006582D01*
X005050Y006582D01*
X005120Y006512D01*
X005120Y006372D01*
X005050Y006302D01*
X005050Y006122D02*
X005120Y006052D01*
X005120Y005912D01*
X005050Y005842D01*
X004700Y006302D02*
X004700Y006582D01*
X004949Y004308D02*
X005160Y004098D01*
X004879Y004098D01*
X004949Y003888D02*
X004949Y004308D01*
X005340Y004238D02*
X005340Y003958D01*
X005410Y003888D01*
X005620Y003888D01*
X005620Y004308D01*
X005410Y004308D01*
X005340Y004238D01*
X007910Y004285D02*
X008160Y004035D01*
X007910Y003785D01*
X007910Y003285D01*
X008160Y003035D01*
X008660Y003035D01*
X008910Y003285D01*
X008910Y003785D01*
X008660Y004035D01*
X008910Y004285D01*
X008910Y004785D01*
X008660Y005035D01*
X008910Y005285D01*
X008910Y005785D01*
X008660Y006035D01*
X008910Y006285D01*
X008910Y006785D01*
X008660Y007035D01*
X008160Y007035D01*
X007910Y006785D01*
X007910Y006285D01*
X008160Y006035D01*
X007910Y005785D01*
X007910Y005285D01*
X008160Y005035D01*
X007910Y004785D01*
X007910Y004285D01*
X007272Y001303D02*
X006992Y001303D01*
X006992Y001233D01*
X007272Y000953D01*
X007272Y000883D01*
X006992Y000883D01*
X006812Y000883D02*
X006531Y001163D01*
X006531Y001233D01*
X006602Y001303D01*
X006742Y001303D01*
X006812Y001233D01*
X006812Y000883D02*
X006531Y000883D01*
X003522Y000883D02*
X003242Y000883D01*
X003062Y000883D02*
X002781Y000883D01*
X002922Y000883D02*
X002922Y001303D01*
X003062Y001163D01*
X003242Y001233D02*
X003522Y000953D01*
X003522Y000883D01*
X003522Y001303D02*
X003242Y001303D01*
X003242Y001233D01*
X004254Y008888D02*
X004535Y008888D01*
X004715Y008958D02*
X004715Y009238D01*
X004785Y009308D01*
X004995Y009308D01*
X004995Y008888D01*
X004785Y008888D01*
X004715Y008958D01*
X004535Y009168D02*
X004394Y009308D01*
X004394Y008888D01*
X006567Y008958D02*
X006637Y008888D01*
X006777Y008888D01*
X006847Y008958D01*
X007027Y008958D02*
X007027Y009238D01*
X007097Y009308D01*
X007308Y009308D01*
X007308Y008888D01*
X007097Y008888D01*
X007027Y008958D01*
X006847Y009238D02*
X006777Y009308D01*
X006637Y009308D01*
X006567Y009238D01*
X006567Y009168D01*
X006637Y009098D01*
X006567Y009028D01*
X006567Y008958D01*
X006637Y009098D02*
X006707Y009098D01*
D155*
X003625Y006399D02*
X003504Y006250D01*
X003535Y006190D01*
X003556Y006126D01*
X003746Y006107D01*
X003746Y005963D01*
X003556Y005944D01*
X003535Y005880D01*
X003504Y005820D01*
X003625Y005671D01*
X003524Y005570D01*
X003375Y005691D01*
X003315Y005660D01*
X003251Y005639D01*
X003232Y005449D01*
X003088Y005449D01*
X003069Y005639D01*
X003005Y005660D01*
X002945Y005691D01*
X002796Y005570D01*
X002695Y005671D01*
X002816Y005820D01*
X002785Y005880D01*
X002989Y005964D01*
X003011Y005927D01*
X003040Y005895D01*
X003076Y005871D01*
X003117Y005856D01*
X003160Y005850D01*
X003204Y005856D01*
X003245Y005871D01*
X003282Y005896D01*
X003311Y005929D01*
X003332Y005968D01*
X003343Y006011D01*
X003343Y006055D01*
X003333Y006098D01*
X003313Y006137D01*
X003285Y006171D01*
X003249Y006197D01*
X003208Y006213D01*
X003164Y006219D01*
X003120Y006215D01*
X003078Y006200D01*
X003041Y006176D01*
X003011Y006144D01*
X002989Y006106D01*
X002785Y006190D01*
X002816Y006250D01*
X002695Y006399D01*
X002796Y006500D01*
X002945Y006379D01*
X003005Y006410D01*
X003069Y006431D01*
X003088Y006621D01*
X003232Y006621D01*
X003251Y006431D01*
X003315Y006410D01*
X003375Y006379D01*
X003524Y006500D01*
X003625Y006399D01*
X003623Y006396D02*
X003395Y006396D01*
X003343Y006396D02*
X002977Y006396D01*
X002925Y006396D02*
X002697Y006396D01*
X002744Y006338D02*
X003576Y006338D01*
X003529Y006281D02*
X002791Y006281D01*
X002802Y006223D02*
X003518Y006223D01*
X003543Y006166D02*
X003289Y006166D01*
X003328Y006108D02*
X003736Y006108D01*
X003746Y006050D02*
X003343Y006050D01*
X003338Y005993D02*
X003746Y005993D01*
X003553Y005935D02*
X003314Y005935D01*
X003255Y005878D02*
X003534Y005878D01*
X003505Y005820D02*
X002815Y005820D01*
X002786Y005878D02*
X003065Y005878D01*
X003006Y005935D02*
X002919Y005935D01*
X002769Y005763D02*
X003551Y005763D01*
X003598Y005705D02*
X002722Y005705D01*
X002719Y005648D02*
X002892Y005648D01*
X002821Y005590D02*
X002776Y005590D01*
X003043Y005648D02*
X003277Y005648D01*
X003246Y005590D02*
X003074Y005590D01*
X003080Y005532D02*
X003240Y005532D01*
X003235Y005475D02*
X003085Y005475D01*
X003428Y005648D02*
X003601Y005648D01*
X003544Y005590D02*
X003499Y005590D01*
X002991Y006108D02*
X002984Y006108D01*
X003031Y006166D02*
X002845Y006166D01*
X002854Y006453D02*
X002749Y006453D01*
X003071Y006453D02*
X003249Y006453D01*
X003243Y006511D02*
X003077Y006511D01*
X003083Y006568D02*
X003237Y006568D01*
X003466Y006453D02*
X003571Y006453D01*
D156*
X003910Y006785D02*
X003910Y005285D01*
X005910Y005285D01*
X005910Y006785D01*
X003910Y006785D01*
X003416Y002370D02*
X003416Y001700D01*
X003317Y001996D02*
X003160Y002232D01*
X003003Y001996D01*
X003317Y001996D01*
X002904Y001700D02*
X002904Y002370D01*
X006654Y002370D02*
X006654Y001700D01*
X006753Y001996D02*
X007067Y001996D01*
X006910Y002232D01*
X006753Y001996D01*
X007166Y001700D02*
X007166Y002370D01*
M02*
