G75*
G70*
%OFA0B0*%
%FSLAX24Y24*%
%IPPOS*%
%LPD*%
%AMOC8*
5,1,8,0,0,1.08239X$1,22.5*
%
%ADD10C,0.0000*%
%ADD11R,0.0740X0.0740*%
%ADD12C,0.0740*%
%ADD13R,0.0236X0.0610*%
%ADD14R,0.0551X0.0394*%
%ADD15R,0.0315X0.0315*%
%ADD16C,0.0120*%
%ADD17R,0.0356X0.0356*%
%ADD18C,0.0160*%
D10*
X000411Y001660D02*
X000409Y001594D01*
X000411Y001528D01*
X000417Y001462D01*
X000426Y001396D01*
X000439Y001331D01*
X000456Y001266D01*
X000476Y001203D01*
X000500Y001141D01*
X000527Y001081D01*
X000558Y001022D01*
X000592Y000964D01*
X000629Y000909D01*
X000669Y000856D01*
X000712Y000806D01*
X000757Y000757D01*
X000806Y000712D01*
X000856Y000669D01*
X000909Y000629D01*
X000964Y000592D01*
X001022Y000558D01*
X001081Y000527D01*
X001141Y000500D01*
X001203Y000476D01*
X001266Y000456D01*
X001331Y000439D01*
X001396Y000426D01*
X001462Y000417D01*
X001528Y000411D01*
X001594Y000409D01*
X001660Y000411D01*
X001660Y000410D02*
X008410Y000410D01*
X008478Y000412D01*
X008545Y000417D01*
X008612Y000426D01*
X008679Y000439D01*
X008744Y000456D01*
X008809Y000475D01*
X008873Y000499D01*
X008935Y000526D01*
X008996Y000556D01*
X009054Y000589D01*
X009111Y000625D01*
X009166Y000665D01*
X009219Y000707D01*
X009270Y000753D01*
X009317Y000800D01*
X009363Y000851D01*
X009405Y000904D01*
X009445Y000959D01*
X009481Y001016D01*
X009514Y001074D01*
X009544Y001135D01*
X009571Y001197D01*
X009595Y001261D01*
X009614Y001326D01*
X009631Y001391D01*
X009644Y001458D01*
X009653Y001525D01*
X009658Y001592D01*
X009660Y001660D01*
X009660Y008410D01*
X009658Y008478D01*
X009653Y008545D01*
X009644Y008612D01*
X009631Y008679D01*
X009614Y008744D01*
X009595Y008809D01*
X009571Y008873D01*
X009544Y008935D01*
X009514Y008996D01*
X009481Y009054D01*
X009445Y009111D01*
X009405Y009166D01*
X009363Y009219D01*
X009317Y009270D01*
X009270Y009317D01*
X009219Y009363D01*
X009166Y009405D01*
X009111Y009445D01*
X009054Y009481D01*
X008996Y009514D01*
X008935Y009544D01*
X008873Y009571D01*
X008809Y009595D01*
X008744Y009614D01*
X008679Y009631D01*
X008612Y009644D01*
X008545Y009653D01*
X008478Y009658D01*
X008410Y009660D01*
X001660Y009660D01*
X001035Y008410D02*
X001037Y008460D01*
X001043Y008509D01*
X001053Y008558D01*
X001066Y008605D01*
X001084Y008652D01*
X001105Y008697D01*
X001129Y008740D01*
X001157Y008781D01*
X001188Y008820D01*
X001222Y008856D01*
X001259Y008890D01*
X001299Y008920D01*
X001340Y008947D01*
X001384Y008971D01*
X001429Y008991D01*
X001476Y009007D01*
X001524Y009020D01*
X001573Y009029D01*
X001623Y009034D01*
X001672Y009035D01*
X001722Y009032D01*
X001771Y009025D01*
X001820Y009014D01*
X001867Y009000D01*
X001913Y008981D01*
X001958Y008959D01*
X002001Y008934D01*
X002041Y008905D01*
X002079Y008873D01*
X002115Y008839D01*
X002148Y008801D01*
X002177Y008761D01*
X002203Y008719D01*
X002226Y008675D01*
X002245Y008629D01*
X002261Y008582D01*
X002273Y008533D01*
X002281Y008484D01*
X002285Y008435D01*
X002285Y008385D01*
X002281Y008336D01*
X002273Y008287D01*
X002261Y008238D01*
X002245Y008191D01*
X002226Y008145D01*
X002203Y008101D01*
X002177Y008059D01*
X002148Y008019D01*
X002115Y007981D01*
X002079Y007947D01*
X002041Y007915D01*
X002001Y007886D01*
X001958Y007861D01*
X001913Y007839D01*
X001867Y007820D01*
X001820Y007806D01*
X001771Y007795D01*
X001722Y007788D01*
X001672Y007785D01*
X001623Y007786D01*
X001573Y007791D01*
X001524Y007800D01*
X001476Y007813D01*
X001429Y007829D01*
X001384Y007849D01*
X001340Y007873D01*
X001299Y007900D01*
X001259Y007930D01*
X001222Y007964D01*
X001188Y008000D01*
X001157Y008039D01*
X001129Y008080D01*
X001105Y008123D01*
X001084Y008168D01*
X001066Y008215D01*
X001053Y008262D01*
X001043Y008311D01*
X001037Y008360D01*
X001035Y008410D01*
X000410Y008410D02*
X000410Y001660D01*
X001035Y001660D02*
X001037Y001710D01*
X001043Y001759D01*
X001053Y001808D01*
X001066Y001855D01*
X001084Y001902D01*
X001105Y001947D01*
X001129Y001990D01*
X001157Y002031D01*
X001188Y002070D01*
X001222Y002106D01*
X001259Y002140D01*
X001299Y002170D01*
X001340Y002197D01*
X001384Y002221D01*
X001429Y002241D01*
X001476Y002257D01*
X001524Y002270D01*
X001573Y002279D01*
X001623Y002284D01*
X001672Y002285D01*
X001722Y002282D01*
X001771Y002275D01*
X001820Y002264D01*
X001867Y002250D01*
X001913Y002231D01*
X001958Y002209D01*
X002001Y002184D01*
X002041Y002155D01*
X002079Y002123D01*
X002115Y002089D01*
X002148Y002051D01*
X002177Y002011D01*
X002203Y001969D01*
X002226Y001925D01*
X002245Y001879D01*
X002261Y001832D01*
X002273Y001783D01*
X002281Y001734D01*
X002285Y001685D01*
X002285Y001635D01*
X002281Y001586D01*
X002273Y001537D01*
X002261Y001488D01*
X002245Y001441D01*
X002226Y001395D01*
X002203Y001351D01*
X002177Y001309D01*
X002148Y001269D01*
X002115Y001231D01*
X002079Y001197D01*
X002041Y001165D01*
X002001Y001136D01*
X001958Y001111D01*
X001913Y001089D01*
X001867Y001070D01*
X001820Y001056D01*
X001771Y001045D01*
X001722Y001038D01*
X001672Y001035D01*
X001623Y001036D01*
X001573Y001041D01*
X001524Y001050D01*
X001476Y001063D01*
X001429Y001079D01*
X001384Y001099D01*
X001340Y001123D01*
X001299Y001150D01*
X001259Y001180D01*
X001222Y001214D01*
X001188Y001250D01*
X001157Y001289D01*
X001129Y001330D01*
X001105Y001373D01*
X001084Y001418D01*
X001066Y001465D01*
X001053Y001512D01*
X001043Y001561D01*
X001037Y001610D01*
X001035Y001660D01*
X000410Y008410D02*
X000412Y008478D01*
X000417Y008545D01*
X000426Y008612D01*
X000439Y008679D01*
X000456Y008744D01*
X000475Y008809D01*
X000499Y008873D01*
X000526Y008935D01*
X000556Y008996D01*
X000589Y009054D01*
X000625Y009111D01*
X000665Y009166D01*
X000707Y009219D01*
X000753Y009270D01*
X000800Y009317D01*
X000851Y009363D01*
X000904Y009405D01*
X000959Y009445D01*
X001016Y009481D01*
X001074Y009514D01*
X001135Y009544D01*
X001197Y009571D01*
X001261Y009595D01*
X001326Y009614D01*
X001391Y009631D01*
X001458Y009644D01*
X001525Y009653D01*
X001592Y009658D01*
X001660Y009660D01*
X007785Y008410D02*
X007787Y008460D01*
X007793Y008509D01*
X007803Y008558D01*
X007816Y008605D01*
X007834Y008652D01*
X007855Y008697D01*
X007879Y008740D01*
X007907Y008781D01*
X007938Y008820D01*
X007972Y008856D01*
X008009Y008890D01*
X008049Y008920D01*
X008090Y008947D01*
X008134Y008971D01*
X008179Y008991D01*
X008226Y009007D01*
X008274Y009020D01*
X008323Y009029D01*
X008373Y009034D01*
X008422Y009035D01*
X008472Y009032D01*
X008521Y009025D01*
X008570Y009014D01*
X008617Y009000D01*
X008663Y008981D01*
X008708Y008959D01*
X008751Y008934D01*
X008791Y008905D01*
X008829Y008873D01*
X008865Y008839D01*
X008898Y008801D01*
X008927Y008761D01*
X008953Y008719D01*
X008976Y008675D01*
X008995Y008629D01*
X009011Y008582D01*
X009023Y008533D01*
X009031Y008484D01*
X009035Y008435D01*
X009035Y008385D01*
X009031Y008336D01*
X009023Y008287D01*
X009011Y008238D01*
X008995Y008191D01*
X008976Y008145D01*
X008953Y008101D01*
X008927Y008059D01*
X008898Y008019D01*
X008865Y007981D01*
X008829Y007947D01*
X008791Y007915D01*
X008751Y007886D01*
X008708Y007861D01*
X008663Y007839D01*
X008617Y007820D01*
X008570Y007806D01*
X008521Y007795D01*
X008472Y007788D01*
X008422Y007785D01*
X008373Y007786D01*
X008323Y007791D01*
X008274Y007800D01*
X008226Y007813D01*
X008179Y007829D01*
X008134Y007849D01*
X008090Y007873D01*
X008049Y007900D01*
X008009Y007930D01*
X007972Y007964D01*
X007938Y008000D01*
X007907Y008039D01*
X007879Y008080D01*
X007855Y008123D01*
X007834Y008168D01*
X007816Y008215D01*
X007803Y008262D01*
X007793Y008311D01*
X007787Y008360D01*
X007785Y008410D01*
X007785Y001660D02*
X007787Y001710D01*
X007793Y001759D01*
X007803Y001808D01*
X007816Y001855D01*
X007834Y001902D01*
X007855Y001947D01*
X007879Y001990D01*
X007907Y002031D01*
X007938Y002070D01*
X007972Y002106D01*
X008009Y002140D01*
X008049Y002170D01*
X008090Y002197D01*
X008134Y002221D01*
X008179Y002241D01*
X008226Y002257D01*
X008274Y002270D01*
X008323Y002279D01*
X008373Y002284D01*
X008422Y002285D01*
X008472Y002282D01*
X008521Y002275D01*
X008570Y002264D01*
X008617Y002250D01*
X008663Y002231D01*
X008708Y002209D01*
X008751Y002184D01*
X008791Y002155D01*
X008829Y002123D01*
X008865Y002089D01*
X008898Y002051D01*
X008927Y002011D01*
X008953Y001969D01*
X008976Y001925D01*
X008995Y001879D01*
X009011Y001832D01*
X009023Y001783D01*
X009031Y001734D01*
X009035Y001685D01*
X009035Y001635D01*
X009031Y001586D01*
X009023Y001537D01*
X009011Y001488D01*
X008995Y001441D01*
X008976Y001395D01*
X008953Y001351D01*
X008927Y001309D01*
X008898Y001269D01*
X008865Y001231D01*
X008829Y001197D01*
X008791Y001165D01*
X008751Y001136D01*
X008708Y001111D01*
X008663Y001089D01*
X008617Y001070D01*
X008570Y001056D01*
X008521Y001045D01*
X008472Y001038D01*
X008422Y001035D01*
X008373Y001036D01*
X008323Y001041D01*
X008274Y001050D01*
X008226Y001063D01*
X008179Y001079D01*
X008134Y001099D01*
X008090Y001123D01*
X008049Y001150D01*
X008009Y001180D01*
X007972Y001214D01*
X007938Y001250D01*
X007907Y001289D01*
X007879Y001330D01*
X007855Y001373D01*
X007834Y001418D01*
X007816Y001465D01*
X007803Y001512D01*
X007793Y001561D01*
X007787Y001610D01*
X007785Y001660D01*
D11*
X008410Y003535D03*
X001660Y003535D03*
D12*
X001660Y004535D03*
X001660Y005535D03*
X001660Y006535D03*
X008410Y006535D03*
X008410Y005535D03*
X008410Y004535D03*
D13*
X005660Y004968D03*
X005160Y004968D03*
X004660Y004968D03*
X004160Y004968D03*
X004160Y007094D03*
X004660Y007094D03*
X005160Y007094D03*
X005660Y007094D03*
D14*
X005727Y008161D03*
X005727Y008909D03*
X006593Y008535D03*
X004343Y008535D03*
X003477Y008161D03*
X003477Y008909D03*
X004343Y003909D03*
X004343Y003161D03*
X003477Y003535D03*
X005602Y003535D03*
X006468Y003161D03*
X006468Y003909D03*
D15*
X006910Y002478D03*
X006910Y001592D03*
X003160Y001592D03*
X003160Y002478D03*
D16*
X000926Y000884D02*
X000870Y000884D01*
X000776Y000978D02*
X000637Y001229D01*
X000572Y001508D01*
X000570Y001639D01*
X000570Y001656D01*
X000573Y001718D01*
X000570Y001721D01*
X000570Y008410D01*
X000583Y008581D01*
X000689Y008905D01*
X000805Y009065D01*
X000665Y008822D01*
X000592Y008551D01*
X000592Y008269D01*
X000665Y007998D01*
X000806Y007754D01*
X001004Y007556D01*
X001235Y007422D01*
X001140Y007422D01*
X000827Y007110D01*
X000710Y006993D01*
X000710Y005202D01*
X001202Y004710D01*
X001170Y004632D01*
X001170Y004438D01*
X001245Y004257D01*
X001382Y004120D01*
X001514Y004065D01*
X001269Y004065D01*
X001228Y004054D01*
X001192Y004033D01*
X001162Y004003D01*
X001141Y003967D01*
X001130Y003926D01*
X001130Y003575D01*
X001620Y003575D01*
X001620Y003495D01*
X001700Y003495D01*
X001700Y003575D01*
X002190Y003575D01*
X002190Y003926D01*
X002179Y003967D01*
X002158Y004003D01*
X002128Y004033D01*
X002092Y004054D01*
X002051Y004065D01*
X001806Y004065D01*
X001938Y004120D01*
X002075Y004257D01*
X002150Y004438D01*
X002150Y004632D01*
X002118Y004710D01*
X002176Y004768D01*
X003922Y004768D01*
X003922Y004613D01*
X003925Y004610D01*
X003702Y004610D01*
X003585Y004493D01*
X003277Y004185D01*
X003277Y003852D01*
X003152Y003852D01*
X003081Y003782D01*
X003081Y003288D01*
X003152Y003218D01*
X003802Y003218D01*
X003873Y003288D01*
X003873Y003782D01*
X003802Y003852D01*
X003677Y003852D01*
X003677Y004019D01*
X003868Y004210D01*
X003945Y004210D01*
X003939Y004204D01*
X003918Y004168D01*
X003907Y004127D01*
X003907Y003947D01*
X004305Y003947D01*
X004305Y003871D01*
X004381Y003871D01*
X004381Y003552D01*
X004640Y003552D01*
X004680Y003563D01*
X004717Y003584D01*
X004747Y003614D01*
X004768Y003650D01*
X004779Y003691D01*
X004779Y003871D01*
X004382Y003871D01*
X004382Y003947D01*
X004779Y003947D01*
X004779Y004127D01*
X004768Y004168D01*
X004747Y004204D01*
X004717Y004234D01*
X004680Y004255D01*
X004667Y004259D01*
X004743Y004335D01*
X004860Y004452D01*
X004860Y004575D01*
X004898Y004613D01*
X004898Y005323D01*
X004860Y005361D01*
X004860Y005493D01*
X004735Y005618D01*
X004618Y005735D01*
X002108Y005735D01*
X002075Y005813D01*
X001938Y005950D01*
X001757Y006025D01*
X001563Y006025D01*
X001382Y005950D01*
X001245Y005813D01*
X001170Y005632D01*
X001170Y005438D01*
X001245Y005257D01*
X001382Y005120D01*
X001563Y005045D01*
X001757Y005045D01*
X001938Y005120D01*
X002075Y005257D01*
X002108Y005335D01*
X003934Y005335D01*
X003922Y005323D01*
X003922Y005168D01*
X002010Y005168D01*
X001835Y004993D01*
X001757Y005025D01*
X001563Y005025D01*
X001485Y004993D01*
X001110Y005368D01*
X001110Y006827D01*
X001305Y007023D01*
X001557Y007023D01*
X001382Y006950D01*
X001245Y006813D01*
X001170Y006632D01*
X001170Y006438D01*
X001245Y006257D01*
X001382Y006120D01*
X001563Y006045D01*
X001757Y006045D01*
X001938Y006120D01*
X002075Y006257D01*
X002108Y006335D01*
X004618Y006335D01*
X005202Y006335D01*
X005210Y006327D02*
X005327Y006210D01*
X008042Y006210D01*
X008132Y006120D01*
X008313Y006045D01*
X008507Y006045D01*
X008688Y006120D01*
X008825Y006257D01*
X008900Y006438D01*
X008900Y006632D01*
X008825Y006813D01*
X008688Y006950D01*
X008507Y007025D01*
X008313Y007025D01*
X008132Y006950D01*
X007995Y006813D01*
X007920Y006632D01*
X007920Y006610D01*
X005493Y006610D01*
X005381Y006722D01*
X005391Y006732D01*
X005393Y006727D01*
X005414Y006691D01*
X005444Y006661D01*
X005480Y006640D01*
X005521Y006629D01*
X005660Y006629D01*
X005799Y006629D01*
X005840Y006640D01*
X005876Y006661D01*
X005906Y006691D01*
X005927Y006727D01*
X005938Y006768D01*
X005938Y007094D01*
X005660Y007094D01*
X005660Y006629D01*
X005660Y007094D01*
X005660Y007094D01*
X005660Y007094D01*
X005938Y007094D01*
X005938Y007420D01*
X005927Y007460D01*
X006243Y007460D01*
X006360Y007577D01*
X006793Y008010D01*
X006793Y008218D01*
X006918Y008218D01*
X006989Y008288D01*
X006989Y008782D01*
X006918Y008852D01*
X006268Y008852D01*
X006197Y008782D01*
X006197Y008288D01*
X006268Y008218D01*
X006393Y008218D01*
X006393Y008176D01*
X006163Y007945D01*
X006163Y008123D01*
X005765Y008123D01*
X005765Y008199D01*
X005689Y008199D01*
X005688Y008199D02*
X005688Y008123D01*
X005291Y008123D01*
X005291Y007943D01*
X005302Y007902D01*
X005323Y007866D01*
X005329Y007860D01*
X005202Y007860D01*
X005077Y007735D01*
X004960Y007618D01*
X004960Y007487D01*
X004922Y007449D01*
X004922Y006739D01*
X004960Y006701D01*
X004960Y006577D01*
X005210Y006327D01*
X005321Y006217D02*
X002034Y006217D01*
X001885Y006098D02*
X008185Y006098D01*
X008203Y005980D02*
X001867Y005980D01*
X002027Y005861D02*
X008043Y005861D01*
X008042Y005860D02*
X005327Y005860D01*
X005210Y005743D01*
X004960Y005493D01*
X004960Y005361D01*
X004922Y005323D01*
X004922Y004613D01*
X004960Y004575D01*
X004960Y003702D01*
X005077Y003585D01*
X005206Y003456D01*
X005206Y003288D01*
X005277Y003218D01*
X005927Y003218D01*
X005998Y003288D01*
X005998Y003782D01*
X005927Y003852D01*
X005376Y003852D01*
X005360Y003868D01*
X005360Y004575D01*
X005398Y004613D01*
X005398Y005323D01*
X005377Y005344D01*
X005493Y005460D01*
X007920Y005460D01*
X007920Y005438D01*
X007995Y005257D01*
X008132Y005120D01*
X008313Y005045D01*
X008507Y005045D01*
X008688Y005120D01*
X008825Y005257D01*
X008900Y005438D01*
X008900Y005632D01*
X008825Y005813D01*
X008688Y005950D01*
X008507Y006025D01*
X008313Y006025D01*
X008132Y005950D01*
X008042Y005860D01*
X007941Y005387D02*
X005834Y005387D01*
X005828Y005393D02*
X005492Y005393D01*
X005422Y005323D01*
X005422Y004613D01*
X005492Y004543D01*
X005828Y004543D01*
X005898Y004613D01*
X005898Y005323D01*
X005828Y005393D01*
X005898Y005269D02*
X007990Y005269D01*
X008102Y005150D02*
X005898Y005150D01*
X005898Y005032D02*
X009500Y005032D01*
X009500Y004913D02*
X008725Y004913D01*
X008688Y004950D02*
X008507Y005025D01*
X008313Y005025D01*
X008132Y004950D01*
X007995Y004813D01*
X007920Y004632D01*
X007920Y004438D01*
X007952Y004360D01*
X006953Y003361D01*
X006864Y003361D01*
X006864Y003408D01*
X006793Y003478D01*
X006143Y003478D01*
X006072Y003408D01*
X006072Y003105D01*
X005952Y002985D01*
X004743Y002985D01*
X004739Y002989D01*
X004739Y003408D01*
X004668Y003478D01*
X004018Y003478D01*
X003947Y003408D01*
X003947Y003106D01*
X003519Y002678D01*
X003437Y002678D01*
X003437Y002685D01*
X003367Y002755D01*
X002953Y002755D01*
X002883Y002685D01*
X002883Y002271D01*
X002953Y002200D01*
X003367Y002200D01*
X003437Y002271D01*
X003437Y002278D01*
X003685Y002278D01*
X004251Y002844D01*
X004318Y002844D01*
X004460Y002702D01*
X004577Y002585D01*
X006118Y002585D01*
X006368Y002835D01*
X006425Y002835D01*
X006434Y002844D01*
X006693Y002844D01*
X006710Y002827D01*
X006710Y002755D01*
X006703Y002755D01*
X006633Y002685D01*
X006633Y002271D01*
X006703Y002200D01*
X007117Y002200D01*
X007187Y002271D01*
X007187Y002685D01*
X007117Y002755D01*
X007110Y002755D01*
X007110Y002910D01*
X007110Y002961D01*
X007119Y002961D01*
X007880Y003722D01*
X007880Y003575D01*
X008370Y003575D01*
X008370Y003495D01*
X008450Y003495D01*
X008450Y003575D01*
X008940Y003575D01*
X008940Y003926D01*
X008929Y003967D01*
X008908Y004003D01*
X008878Y004033D01*
X008842Y004054D01*
X008801Y004065D01*
X008556Y004065D01*
X008688Y004120D01*
X008825Y004257D01*
X008900Y004438D01*
X008900Y004632D01*
X008825Y004813D01*
X008688Y004950D01*
X008718Y005150D02*
X009500Y005150D01*
X009500Y005269D02*
X008830Y005269D01*
X008879Y005387D02*
X009500Y005387D01*
X009500Y005506D02*
X008900Y005506D01*
X008900Y005624D02*
X009500Y005624D01*
X009500Y005743D02*
X008854Y005743D01*
X008777Y005861D02*
X009500Y005861D01*
X009500Y005980D02*
X008617Y005980D01*
X008635Y006098D02*
X009500Y006098D01*
X009500Y006217D02*
X008784Y006217D01*
X008858Y006335D02*
X009500Y006335D01*
X009500Y006454D02*
X008900Y006454D01*
X008900Y006572D02*
X009500Y006572D01*
X009500Y006691D02*
X008876Y006691D01*
X008827Y006809D02*
X009500Y006809D01*
X009500Y006928D02*
X008710Y006928D01*
X008551Y007342D02*
X008269Y007342D01*
X007998Y007415D01*
X007754Y007556D01*
X007556Y007754D01*
X007415Y007998D01*
X007342Y008269D01*
X007342Y008551D01*
X007415Y008822D01*
X007556Y009066D01*
X007754Y009264D01*
X007998Y009405D01*
X008269Y009478D01*
X008551Y009478D01*
X008822Y009405D01*
X009065Y009265D01*
X008905Y009381D01*
X008581Y009487D01*
X008410Y009500D01*
X001660Y009500D01*
X001489Y009487D01*
X001165Y009381D01*
X001005Y009265D01*
X001248Y009405D01*
X001519Y009478D01*
X001801Y009478D01*
X002072Y009405D01*
X002316Y009264D01*
X002514Y009066D01*
X002655Y008822D01*
X002710Y008617D01*
X002710Y008868D01*
X002827Y008985D01*
X002952Y009110D01*
X003077Y009110D01*
X003078Y009110D01*
X003081Y009110D01*
X003081Y009156D01*
X003152Y009226D01*
X003568Y009226D01*
X003702Y009360D01*
X005467Y009360D01*
X005479Y009369D01*
X005500Y009366D01*
X005519Y009376D01*
X005567Y009360D01*
X005618Y009360D01*
X005629Y009349D01*
X005644Y009347D01*
X005656Y009330D01*
X005677Y009324D01*
X005699Y009279D01*
X005735Y009243D01*
X005735Y009228D01*
X005736Y009226D01*
X006052Y009226D01*
X006123Y009156D01*
X006123Y008662D01*
X006052Y008592D01*
X005402Y008592D01*
X005331Y008662D01*
X005331Y008960D01*
X003873Y008960D01*
X003873Y008662D01*
X003802Y008592D01*
X003152Y008592D01*
X003110Y008634D01*
X003110Y008490D01*
X003140Y008507D01*
X003180Y008518D01*
X003439Y008518D01*
X003439Y008199D01*
X003515Y008199D01*
X003515Y008518D01*
X003774Y008518D01*
X003814Y008507D01*
X003851Y008486D01*
X003881Y008456D01*
X003902Y008420D01*
X003913Y008379D01*
X003913Y008199D01*
X003515Y008199D01*
X003515Y008123D01*
X003913Y008123D01*
X003913Y007943D01*
X003902Y007902D01*
X003881Y007866D01*
X003851Y007836D01*
X003814Y007815D01*
X003774Y007804D01*
X003515Y007804D01*
X003515Y008123D01*
X003439Y008123D01*
X003439Y007804D01*
X003180Y007804D01*
X003140Y007815D01*
X003110Y007832D01*
X003110Y007827D01*
X002422Y007140D01*
X002305Y007023D01*
X001763Y007023D01*
X001938Y006950D01*
X002075Y006813D01*
X002108Y006735D01*
X003926Y006735D01*
X003922Y006739D01*
X003922Y007449D01*
X003992Y007519D01*
X004328Y007519D01*
X004398Y007449D01*
X004398Y006739D01*
X004394Y006735D01*
X004426Y006735D01*
X004422Y006739D01*
X004422Y007449D01*
X004460Y007487D01*
X004460Y008202D01*
X004444Y008218D01*
X004018Y008218D01*
X003947Y008288D01*
X003947Y008782D01*
X004018Y008852D01*
X004668Y008852D01*
X004739Y008782D01*
X004739Y008489D01*
X004743Y008485D01*
X004860Y008368D01*
X004860Y007487D01*
X004898Y007449D01*
X004898Y006739D01*
X004860Y006701D01*
X004860Y006577D01*
X004735Y006452D01*
X004735Y006452D01*
X004618Y006335D01*
X004736Y006454D02*
X005084Y006454D01*
X004965Y006572D02*
X004855Y006572D01*
X004860Y006691D02*
X004960Y006691D01*
X004922Y006809D02*
X004898Y006809D01*
X004898Y006928D02*
X004922Y006928D01*
X004922Y007046D02*
X004898Y007046D01*
X004898Y007165D02*
X004922Y007165D01*
X004922Y007283D02*
X004898Y007283D01*
X004898Y007402D02*
X004922Y007402D01*
X004960Y007520D02*
X004860Y007520D01*
X004860Y007639D02*
X004981Y007639D01*
X005099Y007757D02*
X004860Y007757D01*
X004860Y007876D02*
X005318Y007876D01*
X005291Y007994D02*
X004860Y007994D01*
X004860Y008113D02*
X005291Y008113D01*
X005291Y008199D02*
X005688Y008199D01*
X005689Y008199D02*
X005689Y008518D01*
X005430Y008518D01*
X005390Y008507D01*
X005353Y008486D01*
X005323Y008456D01*
X005302Y008420D01*
X005291Y008379D01*
X005291Y008199D01*
X005291Y008231D02*
X004860Y008231D01*
X004860Y008350D02*
X005291Y008350D01*
X005335Y008468D02*
X004760Y008468D01*
X004739Y008587D02*
X006197Y008587D01*
X006197Y008705D02*
X006123Y008705D01*
X006123Y008824D02*
X006239Y008824D01*
X006123Y008942D02*
X007484Y008942D01*
X007416Y008824D02*
X006947Y008824D01*
X006989Y008705D02*
X007384Y008705D01*
X007352Y008587D02*
X006989Y008587D01*
X006989Y008468D02*
X007342Y008468D01*
X007342Y008350D02*
X006989Y008350D01*
X006931Y008231D02*
X007353Y008231D01*
X007384Y008113D02*
X006793Y008113D01*
X006777Y007994D02*
X007417Y007994D01*
X007486Y007876D02*
X006658Y007876D01*
X006540Y007757D02*
X007554Y007757D01*
X007671Y007639D02*
X006421Y007639D01*
X006303Y007520D02*
X007816Y007520D01*
X008048Y007402D02*
X005938Y007402D01*
X005938Y007283D02*
X009500Y007283D01*
X009500Y007165D02*
X005938Y007165D01*
X005938Y007046D02*
X009500Y007046D01*
X009500Y007402D02*
X008772Y007402D01*
X008822Y007415D02*
X009066Y007556D01*
X009264Y007754D01*
X009405Y007998D01*
X009478Y008269D01*
X009478Y008551D01*
X009405Y008822D01*
X009265Y009065D01*
X009381Y008905D01*
X009487Y008581D01*
X009500Y008410D01*
X009500Y001660D01*
X009487Y001489D01*
X009381Y001165D01*
X009265Y001005D01*
X009405Y001248D01*
X009478Y001519D01*
X009478Y001801D01*
X009405Y002072D01*
X009264Y002316D01*
X009066Y002514D01*
X008822Y002655D01*
X008551Y002728D01*
X008269Y002728D01*
X007998Y002655D01*
X007754Y002514D01*
X007556Y002316D01*
X007415Y002072D01*
X007342Y001801D01*
X007342Y001519D01*
X007415Y001248D01*
X007556Y001004D01*
X007754Y000806D01*
X007998Y000665D01*
X008269Y000592D01*
X008551Y000592D01*
X008822Y000665D01*
X009065Y000805D01*
X008905Y000689D01*
X008581Y000583D01*
X008410Y000570D01*
X001721Y000570D01*
X001718Y000573D01*
X001656Y000570D01*
X001639Y000570D01*
X001508Y000572D01*
X001229Y000637D01*
X000978Y000776D01*
X000776Y000978D01*
X000762Y001003D02*
X000807Y001003D01*
X000806Y001004D02*
X001004Y000806D01*
X001248Y000665D01*
X001519Y000592D01*
X001801Y000592D01*
X002072Y000665D01*
X002316Y000806D01*
X002514Y001004D01*
X002655Y001248D01*
X002728Y001519D01*
X002728Y001801D01*
X002655Y002072D01*
X002514Y002316D01*
X002316Y002514D01*
X002072Y002655D01*
X001801Y002728D01*
X001519Y002728D01*
X001248Y002655D01*
X001004Y002514D01*
X000806Y002316D01*
X000665Y002072D01*
X000592Y001801D01*
X000592Y001519D01*
X000665Y001248D01*
X000806Y001004D01*
X000738Y001121D02*
X000696Y001121D01*
X000670Y001240D02*
X000634Y001240D01*
X000635Y001358D02*
X000607Y001358D01*
X000604Y001477D02*
X000580Y001477D01*
X000571Y001595D02*
X000592Y001595D01*
X000592Y001714D02*
X000573Y001714D01*
X000570Y001832D02*
X000601Y001832D01*
X000570Y001951D02*
X000632Y001951D01*
X000664Y002069D02*
X000570Y002069D01*
X000570Y002188D02*
X000732Y002188D01*
X000800Y002306D02*
X000570Y002306D01*
X000570Y002425D02*
X000914Y002425D01*
X001054Y002543D02*
X000570Y002543D01*
X000570Y002662D02*
X001272Y002662D01*
X001269Y003005D02*
X001620Y003005D01*
X001620Y003495D01*
X001130Y003495D01*
X001130Y003144D01*
X001141Y003103D01*
X001162Y003067D01*
X001192Y003037D01*
X001228Y003016D01*
X001269Y003005D01*
X001226Y003017D02*
X000570Y003017D01*
X000570Y002899D02*
X003740Y002899D01*
X003858Y003017D02*
X002094Y003017D01*
X002092Y003016D02*
X002128Y003037D01*
X002158Y003067D01*
X002179Y003103D01*
X002190Y003144D01*
X002190Y003495D01*
X001700Y003495D01*
X001700Y003005D01*
X002051Y003005D01*
X002092Y003016D01*
X002188Y003136D02*
X003947Y003136D01*
X003947Y003254D02*
X003838Y003254D01*
X003873Y003373D02*
X003947Y003373D01*
X003873Y003491D02*
X005171Y003491D01*
X005206Y003373D02*
X004739Y003373D01*
X004739Y003254D02*
X005241Y003254D01*
X005053Y003610D02*
X004742Y003610D01*
X004779Y003728D02*
X004960Y003728D01*
X004960Y003847D02*
X004779Y003847D01*
X004779Y003965D02*
X004960Y003965D01*
X004960Y004084D02*
X004779Y004084D01*
X004748Y004202D02*
X004960Y004202D01*
X004960Y004321D02*
X004728Y004321D01*
X004847Y004439D02*
X004960Y004439D01*
X004960Y004558D02*
X004860Y004558D01*
X004898Y004676D02*
X004922Y004676D01*
X004922Y004795D02*
X004898Y004795D01*
X004898Y004913D02*
X004922Y004913D01*
X004922Y005032D02*
X004898Y005032D01*
X004898Y005150D02*
X004922Y005150D01*
X004922Y005269D02*
X004898Y005269D01*
X004860Y005387D02*
X004960Y005387D01*
X004973Y005506D02*
X004847Y005506D01*
X004729Y005624D02*
X005091Y005624D01*
X005210Y005743D02*
X002104Y005743D01*
X002080Y005269D02*
X003922Y005269D01*
X003922Y004676D02*
X002132Y004676D01*
X002150Y004558D02*
X003650Y004558D01*
X003531Y004439D02*
X002150Y004439D01*
X002102Y004321D02*
X003413Y004321D01*
X003294Y004202D02*
X002020Y004202D01*
X001850Y004084D02*
X003277Y004084D01*
X003277Y003965D02*
X002180Y003965D01*
X002190Y003847D02*
X003146Y003847D01*
X003081Y003728D02*
X002190Y003728D01*
X002190Y003610D02*
X003081Y003610D01*
X003081Y003491D02*
X002190Y003491D01*
X002190Y003373D02*
X003081Y003373D01*
X003116Y003254D02*
X002190Y003254D01*
X001700Y003254D02*
X001620Y003254D01*
X001620Y003136D02*
X001700Y003136D01*
X001700Y003017D02*
X001620Y003017D01*
X001620Y003373D02*
X001700Y003373D01*
X001700Y003491D02*
X001620Y003491D01*
X001130Y003491D02*
X000570Y003491D01*
X000570Y003373D02*
X001130Y003373D01*
X001130Y003254D02*
X000570Y003254D01*
X000570Y003136D02*
X001132Y003136D01*
X001130Y003610D02*
X000570Y003610D01*
X000570Y003728D02*
X001130Y003728D01*
X001130Y003847D02*
X000570Y003847D01*
X000570Y003965D02*
X001140Y003965D01*
X001300Y004202D02*
X000570Y004202D01*
X000570Y004084D02*
X001470Y004084D01*
X001218Y004321D02*
X000570Y004321D01*
X000570Y004439D02*
X001170Y004439D01*
X001170Y004558D02*
X000570Y004558D01*
X000570Y004676D02*
X001188Y004676D01*
X001118Y004795D02*
X000570Y004795D01*
X000570Y004913D02*
X000999Y004913D01*
X000881Y005032D02*
X000570Y005032D01*
X000570Y005150D02*
X000762Y005150D01*
X000710Y005269D02*
X000570Y005269D01*
X000570Y005387D02*
X000710Y005387D01*
X000710Y005506D02*
X000570Y005506D01*
X000570Y005624D02*
X000710Y005624D01*
X000710Y005743D02*
X000570Y005743D01*
X000570Y005861D02*
X000710Y005861D01*
X000710Y005980D02*
X000570Y005980D01*
X000570Y006098D02*
X000710Y006098D01*
X000710Y006217D02*
X000570Y006217D01*
X000570Y006335D02*
X000710Y006335D01*
X000710Y006454D02*
X000570Y006454D01*
X000570Y006572D02*
X000710Y006572D01*
X000710Y006691D02*
X000570Y006691D01*
X000570Y006809D02*
X000710Y006809D01*
X000710Y006928D02*
X000570Y006928D01*
X000570Y007046D02*
X000763Y007046D01*
X000882Y007165D02*
X000570Y007165D01*
X000570Y007283D02*
X001000Y007283D01*
X001119Y007402D02*
X000570Y007402D01*
X000570Y007520D02*
X001066Y007520D01*
X000921Y007639D02*
X000570Y007639D01*
X000570Y007757D02*
X000804Y007757D01*
X000736Y007876D02*
X000570Y007876D01*
X000570Y007994D02*
X000667Y007994D01*
X000634Y008113D02*
X000570Y008113D01*
X000570Y008231D02*
X000603Y008231D01*
X000592Y008350D02*
X000570Y008350D01*
X000575Y008468D02*
X000592Y008468D01*
X000585Y008587D02*
X000602Y008587D01*
X000624Y008705D02*
X000634Y008705D01*
X000662Y008824D02*
X000666Y008824D01*
X000716Y008942D02*
X000734Y008942D01*
X000802Y009061D02*
X000803Y009061D01*
X001050Y009298D02*
X001062Y009298D01*
X001272Y009416D02*
X001289Y009416D01*
X002031Y009416D02*
X008039Y009416D01*
X007812Y009298D02*
X005690Y009298D01*
X006099Y009179D02*
X007669Y009179D01*
X007553Y009061D02*
X006123Y009061D01*
X006024Y008518D02*
X005765Y008518D01*
X005765Y008199D01*
X006163Y008199D01*
X006163Y008379D01*
X006152Y008420D01*
X006131Y008456D01*
X006101Y008486D01*
X006064Y008507D01*
X006024Y008518D01*
X006119Y008468D02*
X006197Y008468D01*
X006197Y008350D02*
X006163Y008350D01*
X006163Y008231D02*
X006255Y008231D01*
X006330Y008113D02*
X006163Y008113D01*
X006163Y007994D02*
X006211Y007994D01*
X005765Y008231D02*
X005689Y008231D01*
X005689Y008350D02*
X005765Y008350D01*
X005765Y008468D02*
X005689Y008468D01*
X005331Y008705D02*
X004739Y008705D01*
X004697Y008824D02*
X005331Y008824D01*
X005331Y008942D02*
X003873Y008942D01*
X003873Y008824D02*
X003989Y008824D01*
X003947Y008705D02*
X003873Y008705D01*
X003947Y008587D02*
X003110Y008587D01*
X002784Y008942D02*
X002586Y008942D01*
X002654Y008824D02*
X002710Y008824D01*
X002710Y008705D02*
X002686Y008705D01*
X002517Y009061D02*
X002903Y009061D01*
X003105Y009179D02*
X002401Y009179D01*
X002258Y009298D02*
X003640Y009298D01*
X003515Y008468D02*
X003439Y008468D01*
X003439Y008350D02*
X003515Y008350D01*
X003515Y008231D02*
X003439Y008231D01*
X003439Y008113D02*
X003515Y008113D01*
X003515Y007994D02*
X003439Y007994D01*
X003439Y007876D02*
X003515Y007876D01*
X003886Y007876D02*
X004460Y007876D01*
X004460Y007994D02*
X003913Y007994D01*
X003913Y008113D02*
X004460Y008113D01*
X004460Y007757D02*
X003040Y007757D01*
X002921Y007639D02*
X004460Y007639D01*
X004460Y007520D02*
X002803Y007520D01*
X002684Y007402D02*
X003922Y007402D01*
X003922Y007283D02*
X002566Y007283D01*
X002447Y007165D02*
X003922Y007165D01*
X003922Y007046D02*
X002329Y007046D01*
X002077Y006809D02*
X003922Y006809D01*
X003922Y006928D02*
X001960Y006928D01*
X001360Y006928D02*
X001210Y006928D01*
X001243Y006809D02*
X001110Y006809D01*
X001110Y006691D02*
X001194Y006691D01*
X001170Y006572D02*
X001110Y006572D01*
X001110Y006454D02*
X001170Y006454D01*
X001212Y006335D02*
X001110Y006335D01*
X001110Y006217D02*
X001286Y006217D01*
X001435Y006098D02*
X001110Y006098D01*
X001110Y005980D02*
X001453Y005980D01*
X001293Y005861D02*
X001110Y005861D01*
X001110Y005743D02*
X001216Y005743D01*
X001170Y005624D02*
X001110Y005624D01*
X001110Y005506D02*
X001170Y005506D01*
X001191Y005387D02*
X001110Y005387D01*
X001209Y005269D02*
X001240Y005269D01*
X001328Y005150D02*
X001352Y005150D01*
X001446Y005032D02*
X001874Y005032D01*
X001968Y005150D02*
X001992Y005150D01*
X003677Y003965D02*
X003907Y003965D01*
X003907Y003871D02*
X003907Y003691D01*
X003918Y003650D01*
X003939Y003614D01*
X003969Y003584D01*
X004006Y003563D01*
X004046Y003552D01*
X004305Y003552D01*
X004305Y003871D01*
X003907Y003871D01*
X003907Y003847D02*
X003808Y003847D01*
X003873Y003728D02*
X003907Y003728D01*
X003873Y003610D02*
X003944Y003610D01*
X004305Y003610D02*
X004381Y003610D01*
X004381Y003728D02*
X004305Y003728D01*
X004305Y003847D02*
X004381Y003847D01*
X003938Y004202D02*
X003860Y004202D01*
X003907Y004084D02*
X003741Y004084D01*
X004739Y003136D02*
X006072Y003136D01*
X006072Y003254D02*
X005963Y003254D01*
X005998Y003373D02*
X006072Y003373D01*
X005998Y003491D02*
X007083Y003491D01*
X006965Y003373D02*
X006864Y003373D01*
X006805Y003563D02*
X006842Y003584D01*
X006872Y003614D01*
X006893Y003650D01*
X006904Y003691D01*
X006904Y003871D01*
X006507Y003871D01*
X006507Y003947D01*
X006904Y003947D01*
X006904Y004127D01*
X006893Y004168D01*
X006872Y004204D01*
X006842Y004234D01*
X006805Y004255D01*
X006765Y004266D01*
X006506Y004266D01*
X006506Y003947D01*
X006430Y003947D01*
X006430Y003871D01*
X006506Y003871D01*
X006506Y003552D01*
X006765Y003552D01*
X006805Y003563D01*
X006867Y003610D02*
X007202Y003610D01*
X007320Y003728D02*
X006904Y003728D01*
X006904Y003847D02*
X007439Y003847D01*
X007557Y003965D02*
X006904Y003965D01*
X006904Y004084D02*
X007676Y004084D01*
X007794Y004202D02*
X006873Y004202D01*
X006506Y004202D02*
X006430Y004202D01*
X006430Y004266D02*
X006171Y004266D01*
X006131Y004255D01*
X006094Y004234D01*
X006064Y004204D01*
X006043Y004168D01*
X006032Y004127D01*
X006032Y003947D01*
X006430Y003947D01*
X006430Y004266D01*
X006430Y004084D02*
X006506Y004084D01*
X006506Y003965D02*
X006430Y003965D01*
X006430Y003871D02*
X006032Y003871D01*
X006032Y003691D01*
X006043Y003650D01*
X006064Y003614D01*
X006094Y003584D01*
X006131Y003563D01*
X006171Y003552D01*
X006430Y003552D01*
X006430Y003871D01*
X006430Y003847D02*
X006506Y003847D01*
X006506Y003728D02*
X006430Y003728D01*
X006430Y003610D02*
X006506Y003610D01*
X006069Y003610D02*
X005998Y003610D01*
X005998Y003728D02*
X006032Y003728D01*
X006032Y003847D02*
X005933Y003847D01*
X006032Y003965D02*
X005360Y003965D01*
X005360Y004084D02*
X006032Y004084D01*
X006063Y004202D02*
X005360Y004202D01*
X005360Y004321D02*
X007913Y004321D01*
X007920Y004439D02*
X005360Y004439D01*
X005360Y004558D02*
X005478Y004558D01*
X005422Y004676D02*
X005398Y004676D01*
X005398Y004795D02*
X005422Y004795D01*
X005422Y004913D02*
X005398Y004913D01*
X005398Y005032D02*
X005422Y005032D01*
X005422Y005150D02*
X005398Y005150D01*
X005398Y005269D02*
X005422Y005269D01*
X005420Y005387D02*
X005486Y005387D01*
X005898Y004913D02*
X008095Y004913D01*
X007987Y004795D02*
X005898Y004795D01*
X005898Y004676D02*
X007938Y004676D01*
X007920Y004558D02*
X005842Y004558D01*
X007293Y003136D02*
X007882Y003136D01*
X007880Y003144D02*
X007891Y003103D01*
X007912Y003067D01*
X007942Y003037D01*
X007978Y003016D01*
X008019Y003005D01*
X008370Y003005D01*
X008370Y003495D01*
X007880Y003495D01*
X007880Y003144D01*
X007880Y003254D02*
X007412Y003254D01*
X007530Y003373D02*
X007880Y003373D01*
X007880Y003491D02*
X007649Y003491D01*
X007767Y003610D02*
X007880Y003610D01*
X008370Y003491D02*
X008450Y003491D01*
X008450Y003495D02*
X008450Y003005D01*
X008801Y003005D01*
X008842Y003016D01*
X008878Y003037D01*
X008908Y003067D01*
X008929Y003103D01*
X008940Y003144D01*
X008940Y003495D01*
X008450Y003495D01*
X008450Y003373D02*
X008370Y003373D01*
X008370Y003254D02*
X008450Y003254D01*
X008450Y003136D02*
X008370Y003136D01*
X008370Y003017D02*
X008450Y003017D01*
X008844Y003017D02*
X009500Y003017D01*
X009500Y002899D02*
X007110Y002899D01*
X007110Y002780D02*
X009500Y002780D01*
X009500Y002662D02*
X008798Y002662D01*
X009016Y002543D02*
X009500Y002543D01*
X009500Y002425D02*
X009156Y002425D01*
X009270Y002306D02*
X009500Y002306D01*
X009500Y002188D02*
X009338Y002188D01*
X009406Y002069D02*
X009500Y002069D01*
X009500Y001951D02*
X009438Y001951D01*
X009469Y001832D02*
X009500Y001832D01*
X009500Y001714D02*
X009478Y001714D01*
X009478Y001595D02*
X009495Y001595D01*
X009482Y001477D02*
X009466Y001477D01*
X009444Y001358D02*
X009435Y001358D01*
X009405Y001240D02*
X009400Y001240D01*
X009349Y001121D02*
X009332Y001121D01*
X009010Y000766D02*
X008996Y000766D01*
X008776Y000647D02*
X008755Y000647D01*
X008065Y000647D02*
X002005Y000647D01*
X002246Y000766D02*
X007824Y000766D01*
X007676Y000884D02*
X002394Y000884D01*
X002513Y001003D02*
X007557Y001003D01*
X007488Y001121D02*
X002582Y001121D01*
X002650Y001240D02*
X007420Y001240D01*
X007385Y001358D02*
X007208Y001358D01*
X007217Y001373D02*
X007227Y001414D01*
X007227Y001573D01*
X006929Y001573D01*
X006929Y001275D01*
X007089Y001275D01*
X007129Y001286D01*
X007166Y001307D01*
X007196Y001336D01*
X007217Y001373D01*
X007227Y001477D02*
X007354Y001477D01*
X007342Y001595D02*
X006929Y001595D01*
X006929Y001611D02*
X007227Y001611D01*
X007227Y001771D01*
X007217Y001811D01*
X007196Y001848D01*
X007166Y001878D01*
X007129Y001899D01*
X007089Y001910D01*
X006929Y001910D01*
X006929Y001611D01*
X006929Y001573D01*
X006891Y001573D01*
X006891Y001275D01*
X006731Y001275D01*
X006691Y001286D01*
X006654Y001307D01*
X006624Y001336D01*
X006603Y001373D01*
X006593Y001414D01*
X006593Y001573D01*
X006891Y001573D01*
X006891Y001611D01*
X006593Y001611D01*
X006593Y001771D01*
X006603Y001811D01*
X006624Y001848D01*
X006654Y001878D01*
X006691Y001899D01*
X006731Y001910D01*
X006891Y001910D01*
X006891Y001611D01*
X006929Y001611D01*
X006891Y001595D02*
X003179Y001595D01*
X003179Y001611D02*
X003477Y001611D01*
X003477Y001771D01*
X003467Y001811D01*
X003446Y001848D01*
X003416Y001878D01*
X003379Y001899D01*
X003339Y001910D01*
X003179Y001910D01*
X003179Y001611D01*
X003179Y001573D01*
X003179Y001275D01*
X003339Y001275D01*
X003379Y001286D01*
X003416Y001307D01*
X003446Y001336D01*
X003467Y001373D01*
X003477Y001414D01*
X003477Y001573D01*
X003179Y001573D01*
X003141Y001573D01*
X003141Y001275D01*
X002981Y001275D01*
X002941Y001286D01*
X002904Y001307D01*
X002874Y001336D01*
X002853Y001373D01*
X002843Y001414D01*
X002843Y001573D01*
X003141Y001573D01*
X003141Y001611D01*
X002843Y001611D01*
X002843Y001771D01*
X002853Y001811D01*
X002874Y001848D01*
X002904Y001878D01*
X002941Y001899D01*
X002981Y001910D01*
X003141Y001910D01*
X003141Y001611D01*
X003179Y001611D01*
X003141Y001595D02*
X002728Y001595D01*
X002716Y001477D02*
X002843Y001477D01*
X002862Y001358D02*
X002685Y001358D01*
X002728Y001714D02*
X002843Y001714D01*
X002865Y001832D02*
X002719Y001832D01*
X002688Y001951D02*
X007382Y001951D01*
X007414Y002069D02*
X002656Y002069D01*
X002588Y002188D02*
X007482Y002188D01*
X007550Y002306D02*
X007187Y002306D01*
X007187Y002425D02*
X007664Y002425D01*
X007804Y002543D02*
X007187Y002543D01*
X007187Y002662D02*
X008022Y002662D01*
X007976Y003017D02*
X007175Y003017D01*
X006710Y002780D02*
X006313Y002780D01*
X006194Y002662D02*
X006633Y002662D01*
X006633Y002543D02*
X003950Y002543D01*
X004068Y002662D02*
X004501Y002662D01*
X004382Y002780D02*
X004187Y002780D01*
X003831Y002425D02*
X006633Y002425D01*
X006633Y002306D02*
X003713Y002306D01*
X003455Y001832D02*
X006615Y001832D01*
X006593Y001714D02*
X003477Y001714D01*
X003477Y001477D02*
X006593Y001477D01*
X006612Y001358D02*
X003458Y001358D01*
X003179Y001358D02*
X003141Y001358D01*
X003141Y001477D02*
X003179Y001477D01*
X003179Y001714D02*
X003141Y001714D01*
X003141Y001832D02*
X003179Y001832D01*
X002883Y002306D02*
X002520Y002306D01*
X002406Y002425D02*
X002883Y002425D01*
X002883Y002543D02*
X002266Y002543D01*
X002048Y002662D02*
X002883Y002662D01*
X003621Y002780D02*
X000570Y002780D01*
X000978Y000776D02*
X000978Y000776D01*
X000996Y000766D02*
X001074Y000766D01*
X001210Y000647D02*
X001315Y000647D01*
X004739Y003017D02*
X005984Y003017D01*
X006891Y001832D02*
X006929Y001832D01*
X006929Y001714D02*
X006891Y001714D01*
X006891Y001477D02*
X006929Y001477D01*
X006929Y001358D02*
X006891Y001358D01*
X007227Y001714D02*
X007342Y001714D01*
X007351Y001832D02*
X007205Y001832D01*
X008938Y003136D02*
X009500Y003136D01*
X009500Y003254D02*
X008940Y003254D01*
X008940Y003373D02*
X009500Y003373D01*
X009500Y003491D02*
X008940Y003491D01*
X008940Y003610D02*
X009500Y003610D01*
X009500Y003728D02*
X008940Y003728D01*
X008940Y003847D02*
X009500Y003847D01*
X009500Y003965D02*
X008930Y003965D01*
X008770Y004202D02*
X009500Y004202D01*
X009500Y004084D02*
X008600Y004084D01*
X008852Y004321D02*
X009500Y004321D01*
X009500Y004439D02*
X008900Y004439D01*
X008900Y004558D02*
X009500Y004558D01*
X009500Y004676D02*
X008882Y004676D01*
X008833Y004795D02*
X009500Y004795D01*
X007944Y006691D02*
X005906Y006691D01*
X005938Y006809D02*
X007993Y006809D01*
X008110Y006928D02*
X005938Y006928D01*
X005660Y006928D02*
X005660Y006928D01*
X005660Y007046D02*
X005660Y007046D01*
X005660Y006809D02*
X005660Y006809D01*
X005660Y006691D02*
X005660Y006691D01*
X005414Y006691D02*
X005412Y006691D01*
X004422Y006809D02*
X004398Y006809D01*
X004398Y006928D02*
X004422Y006928D01*
X004422Y007046D02*
X004398Y007046D01*
X004398Y007165D02*
X004422Y007165D01*
X004422Y007283D02*
X004398Y007283D01*
X004398Y007402D02*
X004422Y007402D01*
X004005Y008231D02*
X003913Y008231D01*
X003913Y008350D02*
X003947Y008350D01*
X003947Y008468D02*
X003869Y008468D01*
X008551Y007342D02*
X008822Y007415D01*
X009004Y007520D02*
X009500Y007520D01*
X009500Y007639D02*
X009149Y007639D01*
X009266Y007757D02*
X009500Y007757D01*
X009500Y007876D02*
X009334Y007876D01*
X009403Y007994D02*
X009500Y007994D01*
X009500Y008113D02*
X009436Y008113D01*
X009467Y008231D02*
X009500Y008231D01*
X009500Y008350D02*
X009478Y008350D01*
X009478Y008468D02*
X009495Y008468D01*
X009485Y008587D02*
X009468Y008587D01*
X009446Y008705D02*
X009436Y008705D01*
X009408Y008824D02*
X009404Y008824D01*
X009354Y008942D02*
X009336Y008942D01*
X009267Y009061D02*
X009268Y009061D01*
X009020Y009298D02*
X009008Y009298D01*
X008798Y009416D02*
X008781Y009416D01*
D17*
X007285Y007285D03*
X002910Y007285D03*
D18*
X002910Y007910D02*
X002223Y007223D01*
X001223Y007223D01*
X000910Y006910D01*
X000910Y005285D01*
X001660Y004535D01*
X002093Y004968D01*
X004160Y004968D01*
X004660Y004968D02*
X004660Y004535D01*
X004535Y004410D01*
X003785Y004410D01*
X003477Y004102D01*
X003477Y003535D01*
X004285Y003161D02*
X004343Y003161D01*
X004343Y003102D01*
X004660Y002785D01*
X006035Y002785D01*
X006285Y003035D01*
X006342Y003035D01*
X006468Y003161D01*
X006660Y003161D01*
X006910Y002910D01*
X006910Y002478D01*
X007036Y003161D02*
X006660Y003161D01*
X007036Y003161D02*
X008410Y004535D01*
X008410Y005535D02*
X008285Y005660D01*
X005410Y005660D01*
X005160Y005410D01*
X005160Y004968D01*
X005160Y003785D01*
X005410Y003535D01*
X005602Y003535D01*
X004285Y003161D02*
X003602Y002478D01*
X003160Y002478D01*
X004660Y004968D02*
X004660Y005410D01*
X004535Y005535D01*
X001660Y005535D01*
X001660Y006535D02*
X004535Y006535D01*
X004660Y006660D01*
X004660Y007094D01*
X004660Y008285D01*
X004410Y008535D01*
X004343Y008535D01*
X003785Y009160D02*
X003534Y008909D01*
X003160Y008910D01*
X003035Y008910D01*
X002910Y008785D01*
X002910Y007910D01*
X003477Y008909D02*
X003534Y008909D01*
X003785Y009160D02*
X005535Y009160D01*
X005661Y008909D01*
X005727Y008909D01*
X005726Y008910D01*
X005535Y009160D01*
X006593Y008535D02*
X006593Y008093D01*
X006160Y007660D01*
X005285Y007660D01*
X005160Y007535D01*
X005160Y007094D01*
X005160Y006660D01*
X005410Y006410D01*
X008285Y006410D01*
X008410Y006535D01*
X007285Y007285D02*
X007094Y007094D01*
X005660Y007094D01*
M02*
